<svg xmlns="http://www.w3.org/2000/svg" width="929" height="874" viewBox="0 0 929 874" fill="none"><g clip-path="url(#clip0_231_384)"><path fill-rule="evenodd" clip-rule="evenodd" d="M751.714 84.8002C775.938 88.193 793.773 103.808 813.614 115.369C830.733 125.345 845.208 136.96 860.832 148.384C878.864 161.569 902.436 170.793 913.294 188.255C924.766 206.703 936.247 230.929 923.215 248.71C908.859 268.298 869.792 264.247 847.35 278.23C831.199 288.293 830.31 309.827 812.385 317.767C794.463 325.706 772.085 318.661 751.714 320.595C728.556 322.793 706.277 334.457 683.641 329.99C660.645 325.452 644.797 309.295 627.826 296.147C609.238 281.748 578.866 269.565 579 248.93C579.147 226.453 611.518 213.193 628.485 195.215C639.598 183.44 655.282 174.464 662.177 160.801C672.556 140.234 659.288 112.594 678.341 96.4221C695.608 81.7661 726.842 81.3165 751.714 84.8002Z" fill="#F8F5EF"></path><path fill-rule="evenodd" clip-rule="evenodd" d="M622.957 517.245C637.229 569.32 640.61 633.927 607.313 676.433C571.712 721.88 498.361 710.804 448.516 739.929C414.064 760.059 399.424 807.373 361.579 820.018C323.807 832.638 282.731 818.252 244.196 808.198C209.432 799.129 181.467 775.29 147.32 764.119C102.985 749.616 48.9822 761.942 12.8014 732.5C-23.2882 703.133 -31.3337 651.876 -45.1974 607.46C-60.8234 557.399 -90.9192 504.375 -73.8873 454.774C-56.8197 405.07 1.2984 383.974 42.6711 351.568C79.3702 322.822 110.397 276.967 156.919 273.99C205.426 270.885 240.763 320.655 286.905 335.937C321.489 347.39 358.073 344.175 393.571 352.366C440.074 363.095 490.567 364.014 529.32 391.868C572.212 422.699 608.994 466.3 622.957 517.245Z" fill="#F8F5EF"></path></g><defs><clipPath id="clip0_231_384"><rect width="929" height="874" fill="white"></rect></clipPath></defs></svg>