<svg xmlns="http://www.w3.org/2000/svg" width="30" height="30" viewBox="0 0 30 30" fill="none"><g clip-path="url(#clip0_96_481)"><path d="M20.7223 7.98086C20.7223 7.3567 21.116 6.86758 21.6186 6.86758C22.121 6.86758 22.5146 7.35648 22.5146 7.98086C22.5146 8.60502 22.121 9.09391 21.6186 9.09391C21.116 9.09391 20.7223 8.60502 20.7223 7.98086Z" fill="#4F3A14"></path><path d="M13.3116 7.98086C13.3116 7.3567 13.7053 6.86758 14.2077 6.86758C14.7103 6.86758 15.104 7.35648 15.104 7.98086C15.104 8.60502 14.7103 9.09391 14.2077 9.09391C13.7053 9.09391 13.3116 8.60502 13.3116 7.98086Z" fill="#4F3A14"></path><path d="M17.9129 11.3805C17.669 11.3805 17.4714 11.1829 17.4714 10.9389V9.94903C16.9558 9.80118 16.5564 9.4107 16.5564 8.99094C16.5564 8.83713 16.6156 8.46519 17.1643 8.33542C17.3442 8.29285 17.568 8.27454 17.9129 8.27454C18.2576 8.27454 18.4815 8.29285 18.6616 8.33542C19.2103 8.46519 19.2695 8.83713 19.2695 8.99094C19.2695 9.4107 18.8701 9.80118 18.3545 9.94903V10.9389C18.3545 11.1829 18.1567 11.3805 17.9129 11.3805Z" fill="#4F3A14"></path><path d="M7.70979 12.2603C7.16528 13.5285 6.48756 15.1066 6.62008 16.8697C6.72422 18.2533 7.11401 19.6932 7.7178 20.9241C7.82514 21.1432 7.73473 21.4075 7.51569 21.5149C7.45321 21.5455 7.38683 21.5602 7.3216 21.5602C7.15841 21.5602 7.00163 21.4693 6.92472 21.313C6.27287 19.9834 5.85195 18.4291 5.73957 16.9358C5.59057 14.9569 6.31567 13.2685 6.8984 11.9117C7.23165 11.1355 7.51959 10.4651 7.54499 9.9632C7.572 9.42899 7.11492 8.88493 6.56652 8.79888C6.24838 8.74875 5.15684 8.78423 4.47431 11.339C4.41137 11.5745 4.16944 11.7144 3.93369 11.6517C3.69817 11.5887 3.5581 11.3466 3.62104 11.111C3.93118 9.95107 4.37589 9.08749 4.94329 8.54436C5.46079 8.04883 6.08656 7.82956 6.70385 7.92638C7.70406 8.08362 8.47723 9.01723 8.42687 10.0078C8.39346 10.6682 8.07668 11.4061 7.70979 12.2603Z" fill="#4F3A14"></path><path d="M3.0966 16.1016C3.09637 14.9215 3.15771 13.846 3.27902 12.9048C3.30992 12.6629 3.53171 12.4924 3.77318 12.5233C4.0151 12.5544 4.18585 12.7757 4.15495 13.0174C4.03845 13.9215 3.97963 14.959 3.97986 16.1014C3.98031 18.289 4.44906 20.2544 5.37306 21.9433C6.11166 23.2937 7.14369 24.4757 8.44031 25.4562C9.0077 25.8854 9.57785 26.2383 10.113 26.5265C9.90973 26.0751 9.80948 25.5569 9.80948 24.9655C9.80948 24.9067 9.81085 24.8444 9.81314 24.7806C9.1075 24.2953 8.47006 23.6776 7.91594 22.9397C7.76945 22.7447 7.80882 22.4679 8.00383 22.3215C8.19884 22.175 8.47555 22.2143 8.62204 22.4093C9.00953 22.9252 9.44075 23.3743 9.90927 23.7517C10.3288 20.6502 11.9536 15.0176 12.4288 13.4072C11.6545 13.1165 10.9113 12.4784 10.4462 11.5576L9.81749 11.8993C9.60577 12.014 9.3334 11.9334 9.21873 11.7219C9.10223 11.5077 9.18165 11.2397 9.39589 11.1232L10.1285 10.7252C10.0413 10.4043 9.98549 10.0598 9.96695 9.69336L9.24071 9.5693C9.00015 9.52833 8.83856 9.30037 8.87953 9.05981C8.92073 8.81949 9.14869 8.65813 9.38925 8.69887L10.0297 8.80804C10.3554 6.98111 11.7504 4.68382 12.1017 4.12604C12.0903 3.82963 12.0743 3.12491 12.1395 2.3934C12.2695 0.934966 12.6572 0.158827 13.3246 0.0208117C13.9799 -0.114458 14.6391 0.409453 15.3399 1.62344C15.6347 2.13385 15.8703 2.65021 16.0023 2.95782H19.8242C19.9563 2.65021 20.1918 2.13385 20.4866 1.62344C21.1874 0.409453 21.8466 -0.114686 22.5019 0.0208117C23.1693 0.158827 23.557 0.934966 23.687 2.3934C23.7523 3.12468 23.7363 3.82963 23.7246 4.12604C24.0761 4.68382 25.4709 6.98111 25.7969 8.80804L26.4373 8.69887C26.6776 8.6579 26.9058 8.81949 26.9468 9.05981C26.9877 9.30037 26.8262 9.52833 26.5858 9.5693L25.8596 9.69336C25.841 10.0598 25.785 10.4043 25.698 10.7252L26.4306 11.1232C26.6449 11.2397 26.7241 11.5077 26.6078 11.7219C26.4929 11.9334 26.2208 12.0142 26.009 11.8993L25.3803 11.5576C24.915 12.4786 24.1718 13.1167 23.3973 13.4072C23.5232 13.8347 23.7319 14.5525 23.9763 15.4262C24.042 15.661 23.9049 15.9048 23.6701 15.9704C23.4353 16.0364 23.1915 15.899 23.1258 15.6642C22.7294 14.2465 22.4275 13.2431 22.4245 13.233C22.3499 12.9858 22.511 12.7205 22.7644 12.672C23.817 12.4708 24.9164 11.347 24.9809 9.58899C25.0075 8.86389 24.6632 7.75976 23.9853 6.39632C23.4575 5.33522 22.9125 4.49499 22.907 4.48675C22.8555 4.40756 22.8308 4.31418 22.8363 4.21988C22.8367 4.21141 22.8855 3.34967 22.8074 2.47191C22.6967 1.22999 22.4202 0.905669 22.3229 0.885756C22.2263 0.865157 21.8461 1.03728 21.2556 2.05763C20.8354 2.78364 20.5333 3.55223 20.5303 3.56001C20.4644 3.72938 20.301 3.84085 20.119 3.84085H15.7073C15.5253 3.84085 15.3622 3.72938 15.296 3.56001C15.293 3.55223 14.9946 2.79143 14.5753 2.06518C13.9822 1.03842 13.6002 0.865615 13.5034 0.885756C13.4066 0.905669 13.131 1.22839 13.0198 2.46367C12.9408 3.34166 12.9896 4.21141 12.9902 4.22011C12.9955 4.31418 12.9708 4.40779 12.9193 4.48675C12.9138 4.49499 12.3688 5.33522 11.841 6.39654C11.1631 7.75976 10.8188 8.86389 10.8456 9.58899C10.9099 11.347 12.0095 12.4708 13.0621 12.672C13.3155 12.7205 13.4764 12.9861 13.402 13.2332C13.3748 13.3232 10.6925 22.259 10.6925 24.9655C10.6925 25.871 10.974 26.5146 11.5783 26.9911C12.0921 27.3962 12.8529 27.6885 13.8907 27.8787C13.6458 26.9119 13.4286 25.5718 13.2448 23.8959C12.9335 21.0576 12.8229 18.1824 12.8218 18.1537C12.8126 17.91 13.0026 17.7049 13.2464 17.6958C13.4883 17.6855 13.695 17.8766 13.7044 18.1203C13.7053 18.1469 13.8078 20.8088 14.0925 23.5199C14.2589 25.1024 14.4535 26.3896 14.6709 27.3456C14.9854 28.7274 15.263 29.0419 15.3425 29.1064C15.4624 29.0176 16.0408 28.3738 16.3747 24.1301C16.567 21.6865 16.5784 19.2842 16.5784 19.2602C16.5793 19.0169 16.7769 18.8203 17.0199 18.8203C17.0204 18.8203 17.0211 18.8203 17.0218 18.8203C17.2655 18.8212 17.4624 19.0196 17.4615 19.2634C17.4615 19.2895 17.4493 21.885 17.2349 24.4469C17.1081 25.9641 16.9357 27.1776 16.7226 28.054C16.7158 28.0824 16.7084 28.111 16.7013 28.1401C17.0801 28.1518 17.4807 28.1577 17.9133 28.1577C18.3459 28.1577 18.7462 28.1518 19.1252 28.1401C19.1179 28.111 19.1108 28.0822 19.1039 28.054C18.8908 27.1776 18.7182 25.9641 18.5914 24.4469C18.3772 21.885 18.3651 19.2895 18.3649 19.2634C18.3639 19.0196 18.561 18.8212 18.8048 18.8203C18.8054 18.8203 18.8059 18.8203 18.8066 18.8203C19.0497 18.8203 19.2472 19.0169 19.2481 19.2602C19.2481 19.2842 19.2593 21.6822 19.4514 24.1257C19.7853 28.3736 20.3641 29.0176 20.4841 29.1064C20.5392 29.0616 20.6896 28.8963 20.8814 28.3388C20.889 28.3001 20.9013 28.263 20.9183 28.2284C20.9929 27.9977 21.073 27.7089 21.1556 27.3456C21.373 26.3896 21.5676 25.1024 21.734 23.5199C22.0187 20.8088 22.1213 18.1469 22.1222 18.1203C22.1316 17.8766 22.3366 17.6852 22.5802 17.6958C22.8239 17.7049 23.0139 17.91 23.0047 18.1537C23.0036 18.1824 22.8928 21.0576 22.5818 23.8959C22.398 25.572 22.1805 26.9119 21.9356 27.8787C22.9713 27.689 23.731 27.3978 24.2446 26.9941C24.8514 26.5171 25.134 25.8726 25.134 24.9655C25.134 23.7719 24.5998 21.1416 23.5895 17.3591C23.5266 17.1233 23.6664 16.8814 23.9022 16.8185C24.1375 16.7557 24.3796 16.8954 24.4428 17.1311C25.4874 21.0418 26.0171 23.6778 26.0171 24.9655C26.0171 26.1488 25.6158 27.0394 24.7905 27.6883C24.0869 28.2413 23.0565 28.613 21.6466 28.8215C21.3964 29.471 21.0398 30 20.4893 30C19.9711 30 19.6349 29.5534 19.4065 29.014C18.9439 29.0318 18.4525 29.0407 17.9133 29.0407C17.374 29.0407 16.8826 29.0318 16.42 29.014C16.1916 29.5534 15.8554 30 15.3372 30C14.7865 30 14.4301 29.471 14.1797 28.8215C13.6657 28.7453 13.2027 28.6471 12.787 28.5267C12.5925 28.4862 3.09889 26.3228 3.0966 16.1016Z" fill="#4F3A14"></path></g><defs><clipPath id="clip0_96_481"><rect width="30" height="30" fill="white" transform="matrix(-1 0 0 1 30 0)"></rect></clipPath></defs></svg>