<svg width="60" height="60" viewBox="0 0 60 60" fill="none" xmlns="http://www.w3.org/2000/svg">
<path d="M46.3372 31.8218C46.2509 31.8212 46.1664 31.7968 46.093 31.7513C46.0197 31.7057 45.9603 31.6408 45.9215 31.5637C45.8828 31.4865 45.866 31.4002 45.8732 31.3141C45.8804 31.2281 45.9112 31.1457 45.9622 31.076C46.2753 30.6518 47.0792 29.9862 47.8808 30.5018C47.9828 30.5703 48.0539 30.676 48.0788 30.7962C48.1036 30.9165 48.0803 31.0418 48.0138 31.145C47.9473 31.2483 47.8429 31.3213 47.7231 31.3484C47.6032 31.3754 47.4776 31.3544 47.3731 31.2898C47.1158 31.1225 46.7192 31.6292 46.7169 31.6343C46.6728 31.6932 46.6154 31.7408 46.5494 31.7734C46.4835 31.806 46.4108 31.8225 46.3372 31.8218Z" fill="#CEB992"/>
<path d="M37.0591 35.9561C36.9995 35.9561 36.9564 35.9561 36.9349 35.9537C36.8109 35.9482 36.6942 35.8939 36.6103 35.8025C36.5264 35.7111 36.4821 35.5902 36.4872 35.4662C36.4945 35.343 36.5492 35.2273 36.6399 35.1436C36.7307 35.0598 36.8503 35.0145 36.9738 35.0171C37.3455 35.0293 38.1925 34.9482 38.4428 34.6009C38.5157 34.5001 38.6256 34.4324 38.7483 34.4127C38.8711 34.3929 38.9967 34.4228 39.0974 34.4956C39.1982 34.5685 39.2659 34.6784 39.2856 34.8012C39.3053 34.9239 39.2755 35.0495 39.2027 35.1503C38.6678 35.89 37.4678 35.9561 37.0591 35.9561Z" fill="#CEB992"/>
<path d="M38.3643 30.9487C38.176 30.9515 37.9895 30.9117 37.8186 30.8324C37.7631 30.8052 37.7135 30.7672 37.6727 30.7208C37.6318 30.6743 37.6006 30.6202 37.5808 30.5615C37.561 30.5029 37.553 30.441 37.5573 30.3793C37.5615 30.3176 37.5779 30.2573 37.6056 30.2019C37.6332 30.1466 37.6716 30.0973 37.7184 30.0568C37.7652 30.0164 37.8195 29.9856 37.8783 29.9662C37.9371 29.9469 37.9991 29.9394 38.0608 29.9441C38.1225 29.9488 38.1826 29.9657 38.2377 29.9938C38.2846 30.0135 38.6071 30.1157 38.9933 29.6329C39.0721 29.5394 39.1842 29.4803 39.3059 29.4683C39.4275 29.4563 39.549 29.4923 39.6445 29.5686C39.74 29.6449 39.8019 29.7555 39.8171 29.8768C39.8322 29.9981 39.7994 30.1205 39.7255 30.2179C39.5705 30.4366 39.367 30.6164 39.1308 30.7432C38.8946 30.87 38.6322 30.9403 38.3643 30.9487Z" fill="#CEB992"/>
<path d="M39.7935 29.1605C39.729 29.1608 39.6651 29.1477 39.606 29.1221C39.0605 28.8744 38.459 28.7764 37.8631 28.838C37.8036 28.8537 37.7415 28.8575 37.6805 28.8492C37.6195 28.8408 37.5607 28.8206 37.5075 28.7895C37.4543 28.7585 37.4078 28.7173 37.3705 28.6683C37.3332 28.6192 37.306 28.5634 37.2903 28.5038C37.2747 28.4442 37.2709 28.3822 37.2792 28.3212C37.2875 28.2601 37.3078 28.2014 37.3388 28.1482C37.3698 28.095 37.411 28.0484 37.4601 28.0112C37.5091 27.9739 37.565 27.9466 37.6245 27.931C38.5878 27.6779 39.8394 28.2015 39.9786 28.2619C40.0775 28.3049 40.1585 28.3807 40.208 28.4764C40.2575 28.5721 40.2725 28.682 40.2505 28.7875C40.2285 28.893 40.1708 28.9877 40.0871 29.0557C40.0034 29.1236 39.8989 29.1607 39.7911 29.1605H39.7935Z" fill="#CEB992"/>
<path d="M44.5313 29.3506C44.4624 29.3507 44.3943 29.3355 44.332 29.306C44.2696 29.2766 44.2146 29.2337 44.1708 29.1805C43.8928 28.8194 43.6641 28.423 43.4907 28.0016C43.0409 26.9683 42.9209 25.8215 43.1471 24.7175C43.1587 24.6562 43.1825 24.5978 43.217 24.5458C43.2515 24.4938 43.296 24.4492 43.348 24.4147C43.3999 24.3801 43.4582 24.3563 43.5195 24.3445C43.5808 24.3328 43.6438 24.3334 43.7049 24.3464C43.7659 24.3593 43.8238 24.3843 43.875 24.42C43.9263 24.4556 43.9699 24.501 44.0034 24.5537C44.0368 24.6064 44.0594 24.6652 44.0698 24.7268C44.0802 24.7883 44.0782 24.8513 44.064 24.912C43.8784 25.8279 43.9796 26.7787 44.3536 27.635C44.4927 27.9731 44.6743 28.2921 44.8941 28.5842C44.9506 28.6529 44.9863 28.7362 44.9972 28.8244C45.0081 28.9126 44.9937 29.0021 44.9557 29.0824C44.9177 29.1628 44.8576 29.2306 44.7824 29.2781C44.7073 29.3256 44.6202 29.3507 44.5313 29.3506Z" fill="#CEB992"/>
<path d="M42.8174 28.6341H42.7921C38.7139 28.4138 37.3447 26.8852 36.9167 25.6411C36.4602 24.3314 36.8895 22.6795 38.0117 21.4345C38.0958 21.3453 38.2114 21.2925 38.3339 21.2875C38.4563 21.2825 38.5759 21.3256 38.6669 21.4077C38.758 21.4898 38.8132 21.6043 38.8209 21.7266C38.8285 21.849 38.7879 21.9694 38.7078 22.0622C38.0277 22.8174 37.3822 24.128 37.8027 25.3345C38.2827 26.7295 40.025 27.5461 42.8422 27.698C42.9038 27.6996 42.9644 27.7134 43.0207 27.7384C43.0769 27.7635 43.1277 27.7994 43.17 27.8441C43.2124 27.8887 43.2456 27.9413 43.2676 27.9988C43.2897 28.0563 43.3002 28.1176 43.2985 28.1792C43.2969 28.2407 43.2832 28.3013 43.2581 28.3576C43.2331 28.4138 43.1972 28.4646 43.1525 28.507C43.1078 28.5493 43.0552 28.5825 42.9977 28.6046C42.9402 28.6266 42.8789 28.6371 42.8174 28.6355V28.6341Z" fill="#CEB992"/>
<path d="M48.3514 18.5004C48.2303 18.5005 48.1138 18.4537 48.0264 18.3698C47.939 18.2859 47.8875 18.1714 47.8827 18.0504C47.8652 17.864 47.8056 17.684 47.7083 17.524C47.2733 16.7445 46.4206 16.2584 46.2083 16.2865C46.1649 16.2896 46.1238 16.3073 46.0918 16.3368C46.0598 16.3662 46.0387 16.4057 46.032 16.4487C46.0273 16.4763 46.0063 16.7374 46.633 17.3637C46.6777 17.4069 46.7134 17.4586 46.738 17.5158C46.7626 17.573 46.7755 17.6345 46.7761 17.6968C46.7766 17.759 46.7647 17.8207 46.7412 17.8783C46.7176 17.936 46.6828 17.9883 46.6388 18.0323C46.5948 18.0763 46.5424 18.1111 46.4848 18.1347C46.4272 18.1583 46.3655 18.1701 46.3033 18.1696C46.241 18.169 46.1795 18.1561 46.1223 18.1315C46.0651 18.107 46.0134 18.0713 45.9702 18.0265C45.2989 17.3557 45.0247 16.8077 45.1062 16.2996C45.1425 16.1102 45.2251 15.9327 45.3467 15.7831C45.4684 15.6335 45.6253 15.5164 45.8033 15.4423C46.6527 15.0129 48.0064 16.1351 48.5248 17.067C48.696 17.3547 48.7964 17.6789 48.8178 18.0129C48.8228 18.1371 48.7782 18.2582 48.6939 18.3495C48.6096 18.4408 48.4925 18.4949 48.3683 18.4999L48.3514 18.5004Z" fill="#CEB992"/>
<path d="M51.1958 31.4569C50.7977 31.4535 50.4021 31.3932 50.0211 31.2778C49.9017 31.243 49.8011 31.1622 49.7413 31.0532C49.6816 30.9442 49.6675 30.8159 49.7023 30.6966C49.7372 30.5772 49.8179 30.4766 49.927 30.4168C50.036 30.357 50.1642 30.343 50.2836 30.3778C50.588 30.4887 50.9116 30.5376 51.2352 30.5215C51.5589 30.5054 51.876 30.4247 52.1679 30.2841C52.3681 30.1677 52.5428 30.0123 52.6817 29.8271C52.8206 29.6419 52.9209 29.4307 52.9765 29.2059C53.0996 28.7088 53.0518 28.1847 52.8406 27.7181C52.7927 27.6051 52.7911 27.4778 52.8361 27.3636C52.8811 27.2494 52.9691 27.1574 53.0812 27.1074C53.1933 27.0573 53.3205 27.0533 53.4356 27.096C53.5507 27.1388 53.6443 27.225 53.6965 27.3361C53.9951 27.998 54.0612 28.7413 53.884 29.4455C53.7969 29.792 53.6408 30.1174 53.4251 30.4022C53.2095 30.6871 52.9386 30.9256 52.6287 31.1034C52.1898 31.3436 51.696 31.4654 51.1958 31.4569Z" fill="#CEB992"/>
<path d="M59.5316 46.8971C58.9176 44.9513 53.992 37.1771 51.8277 37.1771C51.4132 37.1907 51.0123 37.3289 50.6774 37.5736C50.4791 37.3654 50.3021 37.1379 50.1491 36.8944C51.5728 36.2421 52.8284 35.2729 53.8201 34.0611C54.8119 32.8492 55.5134 31.4266 55.8712 29.9021C56.3978 29.8617 56.9081 29.7007 57.3625 29.4316C57.817 29.1625 58.2034 28.7924 58.4919 28.35C58.7955 27.8778 58.984 27.3409 59.0422 26.7826C59.1005 26.2242 59.0268 25.66 58.8271 25.1353C58.1268 23.5228 56.8152 22.3341 55.2965 20.9578L54.9684 20.6592C53.7369 19.5705 52.3115 18.7234 50.7665 18.1622C50.9061 18.0159 51.0083 17.838 51.0646 17.6438C51.1213 17.4366 51.1183 17.2177 51.0559 17.0121C50.9935 16.8066 50.8744 16.6229 50.7121 16.4822C50.4955 16.3169 50.2468 16.1985 49.982 16.1345C49.7171 16.0705 49.4419 16.0623 49.1737 16.1105C48.8778 16.1504 48.5943 16.2549 48.3432 16.4164C48.0922 16.5779 47.8796 16.7925 47.7205 17.0452C47.6877 17.0973 47.6655 17.1553 47.6551 17.216C47.6448 17.2767 47.6465 17.3389 47.6601 17.3989C47.6737 17.459 47.6991 17.5158 47.7347 17.566C47.7703 17.6163 47.8154 17.659 47.8675 17.6918C47.9196 17.7246 47.9777 17.7469 48.0384 17.7572C48.0991 17.7676 48.1612 17.7659 48.2213 17.7523C48.2813 17.7386 48.3381 17.7133 48.3883 17.6777C48.4386 17.6421 48.4813 17.597 48.5141 17.5449C48.6013 17.4068 48.7179 17.2897 48.8557 17.2021C48.9935 17.1145 49.149 17.0585 49.311 17.0381C49.5835 16.9853 49.8659 17.0404 50.0985 17.1919C50.1272 17.2161 50.1484 17.2481 50.1593 17.284C50.1703 17.3199 50.1707 17.3583 50.1604 17.3944C50.121 17.535 49.912 17.7169 49.4413 17.7985C49.3348 17.8169 49.238 17.8716 49.1672 17.9533C49.0964 18.035 49.056 18.1386 49.0529 18.2467C49.0497 18.3547 49.084 18.4605 49.1499 18.5462C49.2159 18.6319 49.3094 18.6921 49.4146 18.7167C51.2331 19.2131 52.9157 20.1143 54.3365 21.353L54.6674 21.6525C56.1651 23.0119 57.3477 24.0816 57.9674 25.508C58.1064 25.8913 58.1549 26.3016 58.1091 26.7068C58.0633 27.112 57.9245 27.5011 57.7035 27.8438C57.4627 28.2102 57.1315 28.5084 56.7419 28.7095C56.3523 28.9107 55.9175 29.008 55.4793 28.9922C55.1562 28.9959 54.8336 28.9691 54.5155 28.9121C54.3948 28.8939 54.2718 28.9236 54.1726 28.9947C54.0734 29.0659 54.0059 29.1729 53.9844 29.2931C53.9629 29.4132 53.9891 29.537 54.0575 29.6382C54.1259 29.7393 54.231 29.8097 54.3505 29.8346C54.538 29.8678 54.7223 29.8917 54.9084 29.9077C53.9029 33.9483 50.4496 35.8013 49.5313 36.2096C48.8855 35.6853 48.321 35.0683 47.856 34.3786C48.3319 34.1919 48.7508 33.8843 49.0714 33.4862C49.392 33.0881 49.6032 32.6132 49.6841 32.1085C49.7742 31.649 49.7612 31.1753 49.6462 30.7214C49.5366 30.1508 49.2571 29.6267 48.8443 29.2177C48.4316 28.8088 47.9049 28.5341 47.3334 28.4297C46.9133 28.3695 46.4849 28.4233 46.0928 28.5854C45.7007 28.7475 45.3593 29.012 45.1045 29.3513C45.0797 29.3913 45.0578 29.4329 45.0388 29.476C45.0155 29.532 45.0036 29.5922 45.0039 29.6529C45.0042 29.7136 45.0166 29.7736 45.0404 29.8295C45.0642 29.8853 45.0989 29.9359 45.1425 29.9781C45.1861 30.0204 45.2377 30.0535 45.2943 30.0755C45.4122 30.1216 45.5434 30.12 45.6601 30.071C45.7769 30.022 45.8699 29.9294 45.9196 29.813C46.0857 29.6402 46.2904 29.5091 46.5169 29.4305C46.7434 29.3518 46.9852 29.3279 47.2227 29.3606C48.0271 29.4581 48.562 30.2246 48.7363 30.946C48.8182 31.2661 48.828 31.6004 48.7649 31.9247C48.7034 32.3421 48.5141 32.7303 48.2231 33.0358C47.9322 33.3413 47.5537 33.5492 47.1398 33.631C46.8986 33.6917 46.6522 33.7294 46.4038 33.7435C46.2795 33.7476 46.1619 33.8009 46.0769 33.8917C45.9919 33.9825 45.9464 34.1034 45.9505 34.2277C45.9546 34.352 46.008 34.4696 46.0988 34.5546C46.1896 34.6396 46.3104 34.6851 46.4348 34.681C46.4451 34.681 46.4559 34.681 46.4666 34.681C46.633 34.6697 46.7882 34.6524 46.9354 34.6303C47.3535 35.506 49.4507 37.6242 49.9621 38.1788C49.732 38.4131 49.5238 38.6574 49.3555 38.8655C48.3928 39.9928 47.5608 41.2255 46.8754 42.54C45.9865 41.2453 45.0305 39.998 44.0113 38.8031C44.0456 38.7448 44.0665 38.6795 44.0727 38.6121C44.0788 38.5447 44.0701 38.4768 44.047 38.4131C44.0254 38.3555 43.9927 38.3026 43.9508 38.2575C43.9088 38.2125 43.8583 38.1761 43.8023 38.1506C43.7463 38.125 43.6858 38.1108 43.6242 38.1086C43.5627 38.1064 43.5013 38.1164 43.4437 38.138L43.1366 38.2496L43.1273 38.2528C42.3927 38.4985 39.9224 39.2203 38.3024 38.4642C37.5248 38.0996 37.453 37.1925 37.4357 35.9513C37.4357 35.7835 37.4315 35.6231 37.4254 35.4703C37.4282 35.1465 37.3807 34.8243 37.2848 34.515C37.0738 34.1012 36.7626 33.7467 36.3796 33.4838C36.022 33.1833 35.5766 32.8097 35.5766 32.543C35.5766 32.25 35.7398 32.0785 36.0515 31.7757C36.5498 31.2919 37.2323 30.63 36.7771 29.0808C36.6932 28.7939 36.4724 26.3752 36.4687 26.3536C36.5545 26.3316 36.6402 26.31 36.7241 26.2824C36.8422 26.243 36.9399 26.1584 36.9956 26.047C37.0513 25.9357 37.0604 25.8068 37.0211 25.6887C36.9817 25.5706 36.8971 25.473 36.7858 25.4173C36.6744 25.3616 36.5455 25.3524 36.4274 25.3917C36.251 25.4503 36.0691 25.4913 35.8846 25.5141C35.6699 25.5725 35.4436 25.5739 35.2282 25.5181C35.0127 25.4624 34.8155 25.3515 34.656 25.1963C34.5492 25.028 34.4882 24.8347 34.479 24.6356C34.4698 24.4365 34.5127 24.2384 34.6035 24.061C35.5049 21.75 41.1023 16.8797 46.1905 18.1496C46.31 18.1764 46.4352 18.1555 46.5395 18.0913C46.6437 18.027 46.7186 17.9245 46.7483 17.8057C46.7779 17.6869 46.7599 17.5612 46.6981 17.4555C46.6362 17.3499 46.5355 17.2726 46.4174 17.2402C40.7488 15.8255 34.7455 21.1125 33.7293 23.7221C33.5753 24.0513 33.5118 24.4157 33.5454 24.7776C33.579 25.1396 33.7085 25.486 33.9205 25.7813C34.1183 26.0148 34.3673 26.1994 34.6481 26.3207C34.929 26.442 35.2341 26.4968 35.5396 26.4806H35.5466C35.5823 27.4428 35.692 28.4008 35.8748 29.3461C36.1705 30.353 35.8457 30.668 35.3962 31.1044C35.1728 31.2752 34.9891 31.4924 34.8579 31.7411C34.7267 31.9898 34.6511 32.2641 34.6363 32.5449C34.6363 33.248 35.241 33.7561 35.7745 34.2038C36.0187 34.3781 36.2311 34.5933 36.4021 34.8399C36.4594 35.0564 36.4872 35.2797 36.4846 35.5036C36.4907 35.6503 36.4926 35.805 36.4945 35.9649C36.5104 37.1072 36.532 38.6719 37.9007 39.3146C38.5856 39.6119 39.3269 39.7566 40.0734 39.7388C41.1144 39.7184 42.1472 39.5485 43.1399 39.2344C44.3264 40.6141 45.43 42.063 46.4446 43.5736C46.2356 44.2747 46.0743 44.9892 45.9618 45.7121C45.8212 46.4583 45.5676 47.8486 46.2824 48.8639C46.5013 49.1543 46.7775 49.3966 47.0938 49.576C47.41 49.7554 47.7598 49.868 48.1213 49.9069C49.6307 50.1121 51.153 50.2061 52.6762 50.1881C54.2474 50.206 55.8179 50.112 57.3759 49.9069C57.7679 49.8517 58.1439 49.7142 58.4791 49.5034C58.8143 49.2927 59.1011 49.0134 59.3207 48.6839C59.484 48.4195 59.5875 48.1225 59.6239 47.8138C59.6604 47.5052 59.6289 47.1923 59.5316 46.8971ZM58.5215 48.1899C58.3728 48.4053 58.1805 48.587 57.9569 48.723C57.7333 48.8591 57.4836 48.9466 57.224 48.9797C54.2504 49.3394 51.2444 49.3394 48.2709 48.9797C48.033 48.96 47.8017 48.8915 47.5914 48.7786C47.3811 48.6657 47.1963 48.5108 47.0484 48.3235C46.5599 47.6302 46.7699 46.4925 46.8829 45.8813C47.0108 45.1168 47.1907 44.3619 47.4215 43.6219V43.6191C48.0013 42.1224 48.9716 40.846 50.0849 39.4528C50.3388 39.1255 50.6236 38.8234 50.9352 38.5505C51.1742 38.3088 51.4883 38.1554 51.8259 38.1155C53.0699 38.1155 57.8821 44.7919 58.6354 47.1797C58.6922 47.346 58.7116 47.5227 58.6922 47.6974C58.6727 47.872 58.6149 48.0402 58.5229 48.1899H58.5215Z" fill="#CEB992"/>
<path d="M31.5963 31.0089C31.407 30.8411 31.257 30.6336 31.1573 30.4011C31.0575 30.1686 31.0104 29.9169 31.0193 29.6641C31.028 29.548 31.0455 29.4329 31.0718 29.3195C31.2436 28.37 31.3519 27.41 31.3962 26.4461C31.3995 26.3218 31.3533 26.2014 31.2677 26.1112C31.1822 26.021 31.0643 25.9685 30.9401 25.9651C30.8162 25.9633 30.6966 26.01 30.6068 26.0953C30.5169 26.1805 30.4639 26.2975 30.4592 26.4212C30.4172 27.3221 30.3169 28.2193 30.1587 29.1072C30.1214 29.2679 30.0965 29.4311 30.0842 29.5956C30.0649 29.9695 30.1261 30.3431 30.2635 30.6913C30.401 31.0395 30.6116 31.3542 30.881 31.6141C31.1913 31.9811 31.3667 32.2052 31.3667 32.5441C31.3667 32.8098 30.9232 33.1834 30.5665 33.4816C30.1835 33.7437 29.8729 34.0985 29.6637 34.5128C29.5423 34.9294 29.4712 35.359 29.4518 35.7925C29.3538 36.8449 29.2423 38.0378 28.3404 38.4644C26.8999 39.1389 24.8885 38.23 24.0884 37.8081C23.786 37.6502 23.6023 37.5311 23.5929 37.5269C23.4891 37.461 23.3635 37.4385 23.2433 37.4642C23.1231 37.49 23.0178 37.562 22.9501 37.6647C22.8825 37.7674 22.8579 37.8926 22.8817 38.0132C22.9055 38.1339 22.9757 38.2404 23.0773 38.3097C23.0806 38.3097 23.1157 38.3345 23.1649 38.3645C23.0604 38.508 22.9554 38.6589 22.8523 38.808C22.7032 39.0222 22.5607 39.2299 22.4388 39.3803C22.3982 39.428 22.3674 39.4834 22.3485 39.5431C22.3296 39.6029 22.3229 39.6658 22.3287 39.7282C22.3345 39.7906 22.3528 39.8512 22.3825 39.9065C22.4121 39.9617 22.4526 40.0104 22.5014 40.0497C22.5502 40.089 22.6064 40.1181 22.6667 40.1353C22.7269 40.1526 22.7901 40.1575 22.8523 40.1499C22.9145 40.1423 22.9745 40.1223 23.0289 40.0911C23.0832 40.0599 23.1308 40.0181 23.1687 39.9681C23.3023 39.8022 23.4593 39.5772 23.6224 39.3424C23.749 39.16 23.8774 38.9772 23.9974 38.8145C24.9737 39.3163 26.0474 39.5997 27.1442 39.6452C27.6934 39.6533 28.2376 39.54 28.7379 39.3133C30.1259 38.6608 30.2754 37.0544 30.3846 35.8816C30.4011 35.5272 30.455 35.1755 30.5454 34.8325C30.7157 34.5876 30.9269 34.3739 31.1698 34.2006C31.7009 33.7534 32.3037 33.2463 32.3037 32.5441C32.2723 31.9609 32.0193 31.4117 31.5963 31.0089Z" fill="#CEB992"/>
<path d="M29.7819 36.0388C29.0955 36.0455 28.4321 35.7911 27.9261 35.3272C27.8361 35.2415 27.7839 35.1234 27.7809 34.9991C27.7779 34.8748 27.8244 34.7544 27.9102 34.6644C27.996 34.5744 28.114 34.5222 28.2383 34.5192C28.3626 34.5162 28.483 34.5627 28.573 34.6485C28.7512 34.8065 28.9589 34.9275 29.1842 35.0046C29.4095 35.0817 29.6479 35.1133 29.8855 35.0975C30.009 35.0824 30.1334 35.1169 30.2314 35.1934C30.3294 35.27 30.393 35.3824 30.4082 35.5058C30.4233 35.6293 30.3888 35.7537 30.3123 35.8517C30.2357 35.9497 30.1233 36.0133 29.9999 36.0285C29.9275 36.036 29.8547 36.0394 29.7819 36.0388Z" fill="#CEB992"/>
<path d="M28.578 30.949C28.31 30.9411 28.0476 30.8707 27.8116 30.7435C27.5756 30.6163 27.3725 30.4358 27.2186 30.2163C27.1446 30.1187 27.1118 29.9959 27.1273 29.8743C27.1427 29.7528 27.2051 29.6421 27.3011 29.566C27.3971 29.4899 27.5192 29.4544 27.641 29.4671C27.7629 29.4799 27.8749 29.5398 27.9531 29.6342C28.3586 30.146 28.6994 29.9956 28.7031 29.9937C28.7582 29.9656 28.8184 29.9487 28.8801 29.944C28.9418 29.9392 29.0038 29.9468 29.0625 29.9661C29.1213 29.9855 29.1756 30.0162 29.2224 30.0567C29.2692 30.0972 29.3076 30.1465 29.3352 30.2018C29.3629 30.2571 29.3793 30.3174 29.3836 30.3791C29.3878 30.4409 29.3798 30.5028 29.36 30.5614C29.3402 30.62 29.309 30.6741 29.2682 30.7206C29.2274 30.7671 29.1777 30.8051 29.1222 30.8323C28.9519 30.9118 28.7659 30.9517 28.578 30.949Z" fill="#CEB992"/>
<path d="M27.431 28.9216C27.3195 28.922 27.2116 28.8825 27.1266 28.8105C27.0416 28.7384 26.985 28.6384 26.9671 28.5284C26.9491 28.4184 26.9709 28.3056 27.0286 28.2102C27.0863 28.1149 27.1761 28.0432 27.2819 28.008C28.023 27.7557 28.8151 27.6913 29.5872 27.8205C29.7075 27.852 29.8103 27.9299 29.8732 28.0372C29.936 28.1445 29.9536 28.2724 29.9221 28.3927C29.8907 28.5129 29.8127 28.6158 29.7054 28.6786C29.5981 28.7414 29.4703 28.759 29.35 28.7276C28.7541 28.6455 28.1472 28.7044 27.5782 28.8996C27.5305 28.9146 27.4809 28.9221 27.431 28.9216Z" fill="#CEB992"/>
<path d="M22.9689 29.3507C22.8446 29.3537 22.7242 29.3072 22.6342 29.2214C22.5441 29.1356 22.4919 29.0175 22.4889 28.8932C22.4859 28.7689 22.5324 28.6485 22.6182 28.5584C22.704 28.4684 22.8221 28.4162 22.9464 28.4132C23.2375 28.3991 23.5141 28.3752 23.7812 28.3513C26.5244 28.0926 28.4266 27.3271 29.4316 26.0765C29.8564 25.5499 30.119 24.9112 30.1877 24.238C30.201 24.1144 30.2628 24.0011 30.3597 23.9231C30.4565 23.8451 30.5803 23.8087 30.704 23.822C30.8276 23.8353 30.9409 23.8972 31.0189 23.994C31.0969 24.0909 31.1333 24.2147 31.12 24.3384C31.0322 25.19 30.6991 25.9979 30.1609 26.6638C28.9891 28.1198 26.8731 29.0015 23.8656 29.2855C23.5844 29.3104 23.2952 29.3352 22.9909 29.3502L22.9689 29.3507Z" fill="#CEB992"/>
<path d="M32.7053 23.7534C30.3282 18.8127 26.267 16.5857 21.2607 17.4796C19.149 17.2523 15.9864 18.2652 13.9112 21.8741C12.8437 23.6962 12.0104 25.6457 11.431 27.6763C11.1843 28.6814 10.7788 29.6407 10.2296 30.5179C8.47745 33.0623 6.7262 34.1165 3.14777 35.9156C1.28964 36.8531 0.439797 39.2385 1.12558 41.5874C1.77386 43.8046 3.83542 46.0227 7.70589 46.0223C8.0774 46.0217 8.44865 46.0024 8.81823 45.9646C9.01933 45.9449 9.23589 45.9116 9.45855 45.8709C9.32448 46.199 9.23542 46.4751 9.16183 46.7146L9.10511 46.897C9.00862 47.1919 8.97763 47.5043 9.01431 47.8124C9.05098 48.1206 9.15443 48.417 9.31745 48.681C9.53693 49.0105 9.82364 49.2899 10.1587 49.5008C10.4939 49.7116 10.8698 49.8492 11.2618 49.9045C12.821 50.1095 14.3928 50.2035 15.9653 50.1857C17.4892 50.2034 19.0123 50.1093 20.5225 49.9045C21.0781 49.8786 21.6046 49.6484 22.0009 49.2581C22.045 49.2143 22.08 49.1623 22.1038 49.1049C22.1276 49.0475 22.1398 48.986 22.1396 48.9239C22.1395 48.8617 22.1269 48.8003 22.1028 48.743C22.0787 48.6858 22.0434 48.6339 21.999 48.5904C21.9547 48.5469 21.9021 48.5127 21.8444 48.4897C21.7867 48.4667 21.725 48.4554 21.6629 48.4565C21.6008 48.4575 21.5395 48.4709 21.4826 48.4959C21.4257 48.5208 21.3744 48.5568 21.3315 48.6018C21.1764 48.7598 21.0737 48.8648 20.372 48.9768C17.3963 49.3368 14.388 49.3368 11.4123 48.9768C11.1528 48.9436 10.9033 48.856 10.6799 48.72C10.4565 48.5839 10.2643 48.4023 10.1157 48.187C10.023 48.0375 9.96449 47.8694 9.94439 47.6947C9.92429 47.5199 9.9431 47.3429 9.99948 47.1763L10.0581 46.9888C10.1989 46.4996 10.3928 46.0272 10.6365 45.5802C12.0428 45.1434 14.8604 43.9396 16.457 41.0657C17.3673 44.3001 19.3309 47.0066 21.7656 48.2962C22.4044 48.6347 23.0905 48.8754 23.8009 49.0101C24.2483 49.0937 24.7023 49.1367 25.1575 49.1385C27.3873 49.1385 28.7692 48.0088 29.1512 46.7798C29.5014 45.6548 29.1015 43.9766 26.8229 42.952C25.2287 42.2918 23.9437 41.0524 23.2262 39.4832C22.0731 36.8906 22.5001 33.3346 24.3446 30.2038C24.4145 30.0834 24.489 29.9624 24.5631 29.8466C24.6227 29.7421 24.6399 29.6186 24.6109 29.5017C24.582 29.3849 24.5092 29.2836 24.4077 29.219C24.3062 29.1543 24.1836 29.1312 24.0655 29.1544C23.9474 29.1776 23.8427 29.2454 23.7732 29.3437C23.6917 29.4716 23.6096 29.6043 23.5351 29.7341C21.5425 33.1176 21.0976 36.9998 22.3698 39.8676C23.1789 41.649 24.6327 43.0578 26.4385 43.8107C27.8757 44.4566 28.5723 45.4893 28.2559 46.5046C27.9095 47.6184 26.3275 48.5202 23.9706 48.0913C23.3534 47.9738 22.7574 47.7643 22.2025 47.4698C19.7101 46.1502 17.7493 43.1573 17.0842 39.6576C16.7828 38.1072 16.7634 36.5152 17.027 34.9579C17.0393 34.8965 17.0392 34.8333 17.0267 34.7719C17.0141 34.7106 16.9895 34.6524 16.9541 34.6008C16.9187 34.5491 16.8733 34.5051 16.8206 34.4713C16.7679 34.4374 16.709 34.4145 16.6473 34.4038C16.5857 34.3932 16.5224 34.3949 16.4615 34.4091C16.4005 34.4232 16.3429 34.4495 16.2923 34.4862C16.2416 34.5229 16.1988 34.5695 16.1663 34.623C16.1339 34.6766 16.1126 34.7361 16.1035 34.798C15.8352 36.3832 15.8414 38.0028 16.1218 39.5859C16.1204 39.5885 16.1189 39.591 16.1171 39.5934C14.8023 43.0677 11.529 44.3512 10.1851 44.7412C9.70789 44.881 9.21929 44.9786 8.72495 45.0327C4.70355 45.4405 2.62698 43.3851 2.02558 41.3254C1.46589 39.412 2.11605 37.4891 3.56964 36.7551C7.29667 34.8801 9.1262 33.7757 11.0021 31.0513C11.6069 30.0955 12.0546 29.049 12.3282 27.9515C12.8877 25.9884 13.6925 24.1037 14.7235 22.342C16.5934 19.0893 19.3895 18.1935 21.2195 18.4185C21.2663 18.4238 21.3137 18.4224 21.3601 18.4143C27.2331 17.3362 30.3132 20.9427 31.8601 24.1598C32.6317 25.7662 32.957 28.0766 32.2107 28.9556C32.1025 29.0835 31.7743 29.4712 30.7853 29.1829C30.7262 29.1656 30.6643 29.1602 30.603 29.1668C30.5418 29.1735 30.4826 29.1921 30.4286 29.2217C30.3746 29.2513 30.3269 29.2912 30.2884 29.3392C30.2498 29.3872 30.221 29.4423 30.2038 29.5014C30.1865 29.5605 30.1811 29.6224 30.1877 29.6836C30.1944 29.7448 30.213 29.8041 30.2426 29.8581C30.2722 29.9121 30.3121 29.9598 30.3601 29.9983C30.4081 30.0369 30.4632 30.0656 30.5223 30.0829C31.8231 30.4626 32.5468 30.0093 32.926 29.5621C33.9531 28.3518 33.6203 25.6584 32.7053 23.7534Z" fill="#CEB992"/>
<path d="M38.696 7.87493C38.3054 7.36587 37.8008 6.95561 37.2227 6.67717C36.6447 6.39872 36.0093 6.25988 35.3678 6.2718C34.5482 6.25543 33.747 6.51568 33.0935 7.01055C32.4415 6.51538 31.6418 6.25431 30.8233 6.26946C30.1816 6.25795 29.5462 6.39686 28.9678 6.67509C28.3895 6.95331 27.8843 7.3631 27.4928 7.87165C27.0824 8.45839 26.8133 9.13215 26.7066 9.84021C26.5999 10.5483 26.6585 11.2714 26.8778 11.9531C27.5116 14.0156 29.4259 15.7565 32.2685 16.8557C32.5326 16.9582 32.8134 17.0106 33.0967 17.0104C33.3807 17.0109 33.6622 16.9578 33.9264 16.8538C36.7638 15.757 38.6782 14.0156 39.3119 11.9531C39.5306 11.2718 39.5887 10.5492 39.4819 9.8418C39.375 9.13436 39.1061 8.4612 38.696 7.87493ZM33.5828 15.9843C33.4281 16.0457 33.2632 16.0775 33.0967 16.0781C32.9291 16.0773 32.763 16.0455 32.6069 15.9843C27.7816 14.1159 26.6983 10.6687 28.2653 8.40602C28.5703 8.02174 28.9602 7.71344 29.4045 7.50537C29.8487 7.29731 30.3352 7.19516 30.8256 7.20696C31.281 7.1821 31.7343 7.28443 32.1348 7.50248C32.5353 7.72053 32.8672 8.04571 33.0935 8.44165C33.3203 8.04526 33.6529 7.71983 34.0542 7.50177C34.4555 7.28371 34.9095 7.18163 35.3655 7.20696C35.8557 7.19469 36.3421 7.29664 36.7861 7.50475C37.2302 7.71286 37.6197 8.02142 37.9239 8.40602C39.4914 10.6687 38.4081 14.1159 33.5828 15.9843Z" fill="#CEB992"/>
</svg>
