<svg xmlns="http://www.w3.org/2000/svg" width="363" height="20" viewBox="0 0 363 20" fill="none"><g clip-path="url(#clip0_164_250)"><path d="M356.908 15.1691C357.488 14.1063 357.198 12.7536 356.328 11.9807C355.459 11.2077 354.009 11.1111 352.947 11.5942C351.111 12.4638 350.435 14.9758 351.304 16.715C352.174 18.5507 354.396 19.5169 356.328 19.2271C358.261 18.9372 360 17.4879 360.869 15.6522C361.739 13.8164 361.739 11.6908 361.256 9.75845C359.807 4.25121 353.72 0.483093 348.212 1.64251C346.86 1.93237 345.507 2.51208 344.541 3.57488C343.575 4.63768 343.188 6.18358 343.671 7.43961C344.154 8.69565 345.797 9.56522 347.15 8.98551C348.502 8.30918 348.889 6.47343 348.212 5.12077C347.633 3.76812 346.28 2.89855 344.927 2.22222C344.927 2.22222 341.159 0.579712 338.357 0.869568H219.613" stroke="#4F3A14" stroke-width="1.5338" stroke-miterlimit="10" stroke-linecap="round" stroke-linejoin="round"></path><path d="M5.41061 15.169C4.73429 14.1062 5.12076 12.6569 5.99032 11.884C6.85989 11.1111 8.30916 11.0144 9.37197 11.4975C11.2077 12.3671 11.884 14.8792 11.0145 16.6183C10.1449 18.454 7.92269 19.4202 5.99032 19.1304C4.05796 18.8405 2.31883 17.3912 1.44926 15.5555C0.579696 13.7197 0.579696 11.5941 1.06279 9.66178C2.51206 4.15453 8.59902 0.386413 14.1063 1.54583C15.4589 1.83569 16.8116 2.4154 17.7778 3.4782C18.7439 4.541 19.1304 6.0869 18.6473 7.34294C18.1642 8.59897 16.5217 9.46854 15.1691 8.88883C13.8164 8.2125 13.4299 6.37675 14.1063 5.0241C14.686 3.67144 16.0386 2.80187 17.3913 2.12554C17.3913 2.12554 21.1594 0.483032 23.9613 0.772887H142.705" stroke="#4F3A14" stroke-width="1.5338" stroke-miterlimit="10" stroke-linecap="round" stroke-linejoin="round"></path><path d="M142.995 11.8841C140.966 10.5314 141.449 6.6667 143.768 5.99038C145.99 5.41067 147.923 6.18361 149.565 8.50245C151.014 10.4348 150.241 13.8165 148.212 15.1691C139.324 21.0628 131.401 6.76332 140.676 1.64255C144.348 -0.386435 149.179 1.25608 152.464 3.86477C155.845 6.47347 158.357 9.95173 161.642 12.657C164.927 15.3624 169.469 17.1981 173.43 15.459C176.039 14.3962 177.874 11.7875 178.068 8.98555C178.261 6.18361 176.908 3.38168 174.589 1.83579C172.367 0.386512 169.082 0.289893 167.053 2.02902C165.024 3.76815 164.638 7.34303 166.763 9.17878C168.792 10.9179 172.754 9.66187 172.947 6.95656" stroke="#4F3A14" stroke-width="1.5722" stroke-miterlimit="10" stroke-linecap="round" stroke-linejoin="round"></path><path d="M220 11.8841C222.029 10.5314 221.546 6.6667 219.227 5.99038C217.005 5.41067 215.072 6.18361 213.43 8.50245C211.981 10.4348 212.754 13.8165 214.783 15.1691C223.671 21.0628 231.594 6.76332 222.319 1.64255C218.647 -0.386435 213.816 1.25608 210.531 3.86477C207.15 6.47347 204.638 9.95173 201.353 12.657C198.068 15.3624 193.526 17.1981 189.565 15.459C186.956 14.3962 185.121 11.7875 184.927 8.98555C184.734 6.18361 186.087 3.38168 188.406 1.83579C190.628 0.386512 193.913 0.289893 195.942 2.02902C197.971 3.76815 198.357 7.34303 196.232 9.17878C194.203 10.9179 190.241 9.66187 190.048 6.95656" stroke="#4F3A14" stroke-width="1.5722" stroke-miterlimit="10" stroke-linecap="round" stroke-linejoin="round"></path></g><defs><clipPath id="clip0_164_250"><rect width="362.222" height="20" fill="white" transform="matrix(1 0 0 -1 0 20)"></rect></clipPath></defs></svg>