<svg width="20" height="20" viewBox="0 0 20 20" fill="none" xmlns="http://www.w3.org/2000/svg">
<g clip-path="url(#clip0_114_343)">
<path d="M10.128 7.42249C9.00131 7.42249 8.08789 8.33586 8.08789 9.4626C8.08789 10.5893 9.00127 11.5027 10.128 11.5027C11.2547 11.5027 12.1681 10.5894 12.1681 9.4626C12.1681 8.33586 11.2548 7.42249 10.128 7.42249ZM10.128 10.5312C9.53782 10.5312 9.05937 10.0528 9.05937 9.46256C9.05937 8.87236 9.53782 8.39392 10.128 8.39392C10.7182 8.39392 11.1967 8.87236 11.1967 9.46256C11.1967 10.0528 10.7182 10.5312 10.128 10.5312Z" fill="#4F3A14"/>
<path d="M18.2644 2.75937L5.00379 1.25362C4.48913 1.18045 3.96769 1.33069 3.57088 1.66651C3.17412 1.97416 2.91979 2.4302 2.86656 2.92942L2.62372 4.92096H1.87077C0.802134 4.92096 0.000656342 5.86812 0.000656342 6.93676V16.8701C-0.0262595 17.8891 0.778007 18.7371 1.79709 18.764C1.82163 18.7647 1.84623 18.7648 1.87077 18.7645H15.2043C16.2729 18.7645 17.2444 17.9387 17.2444 16.8701V16.4815C17.5757 16.4175 17.89 16.2852 18.1673 16.0929C18.5608 15.7616 18.8128 15.2924 18.8716 14.7814L19.9888 4.92096C20.1027 3.84986 19.3341 2.88632 18.2644 2.75937ZM16.2729 16.8701C16.2729 17.4044 15.7386 17.793 15.2043 17.793H1.87077C1.3881 17.8072 0.985338 17.4274 0.971159 16.9447C0.970416 16.9198 0.970741 16.895 0.972136 16.8701V15.0729L4.73663 12.3042C5.18885 11.957 5.82581 11.9878 6.24243 12.377L8.88971 14.7086C9.29172 15.0461 9.79778 15.2348 10.3227 15.2429C10.733 15.2479 11.1367 15.1386 11.4885 14.9271L16.273 12.1584V16.8701H16.2729ZM16.2729 11.017L10.9784 14.1014C10.5237 14.3707 9.94825 14.322 9.5454 13.98L6.87386 11.6241C6.10817 10.9662 4.98905 10.9258 4.178 11.527L0.972136 13.8585V6.93676C0.972136 6.40244 1.33645 5.89244 1.87077 5.89244H15.2043C15.7751 5.9161 16.2361 6.36665 16.2729 6.93676V11.017ZM19.0183 4.78982C19.018 4.79303 19.0177 4.79628 19.0173 4.79949L17.8758 14.66C17.8778 14.9157 17.7612 15.1578 17.5601 15.3157C17.4629 15.4129 17.2443 15.4615 17.2443 15.51V6.93676C17.206 5.83033 16.311 4.94601 15.2042 4.92096H3.59515L3.81373 3.02657C3.86115 2.78126 3.9894 2.55896 4.17805 2.3951C4.39105 2.24783 4.64858 2.17917 4.90668 2.20078L18.1431 3.73085C18.6771 3.78157 19.069 4.25568 19.0183 4.78982Z" fill="#4F3A14"/>
</g>
<defs>
<clipPath id="clip0_114_343">
<rect width="20" height="20" fill="white"/>
</clipPath>
</defs>
</svg>
