<svg xmlns="http://www.w3.org/2000/svg" width="60" height="60" viewBox="0 0 60 60" fill="none"><g clip-path="url(#clip0_150_530)"><path d="M59.9469 44.3952L57.4966 37.6635L58.866 34.2518C59.8172 31.8818 59.8601 29.255 58.9867 26.8552L57.5463 22.8981C57.3803 22.4419 56.8758 22.2067 56.4198 22.3729C55.9637 22.539 55.7285 23.0433 55.8946 23.4994L57.3349 27.4564C58.0601 29.4487 58.0245 31.6295 57.2347 33.5971L55.7402 37.3207C55.6596 37.5216 55.656 37.7453 55.73 37.9488L58.2953 44.9965C58.4252 45.3534 58.7623 45.5751 59.1212 45.5751C59.2211 45.5751 59.3226 45.558 59.4218 45.5219C59.8778 45.3557 60.113 44.8513 59.9469 44.3952Z" fill="#CEB992"></path><path d="M40.6247 43.4466C40.5853 43.3383 40.525 43.2388 40.4472 43.1537L37.4209 39.8472C36.1992 38.512 35.2658 36.973 34.6469 35.2726L33.8286 33.0242C33.6626 32.568 33.1581 32.3328 32.7021 32.4988C32.2459 32.6649 32.0108 33.1692 32.1767 33.6253L32.9951 35.8738C33.6933 37.7918 34.746 39.5278 36.1241 41.0338L39.0326 44.2117L41.5381 51.0955C41.668 51.4525 42.005 51.6742 42.364 51.6741C42.4638 51.6741 42.5653 51.6569 42.6645 51.6209C43.1207 51.4548 43.3558 50.9504 43.1898 50.4943L40.6247 43.4466Z" fill="#CEB992"></path><path d="M32.4736 29.3018L30.9353 25.0757L31.2838 24.1182C31.4498 23.662 31.2146 23.1577 30.7586 22.9916C30.3021 22.8257 29.7981 23.0607 29.632 23.5169L25.3532 35.2727C24.7343 36.9729 23.801 38.512 22.5794 39.8471L19.5531 43.1537C19.4753 43.2388 19.4149 43.3382 19.3756 43.4466L16.8103 50.4945C16.6443 50.9506 16.8795 51.455 17.3357 51.621C17.4349 51.6571 17.5363 51.6742 17.6362 51.6742C17.9951 51.6742 18.3323 51.4525 18.4621 51.0957L20.9676 44.2117L23.876 41.0338C25.2542 39.5277 26.3068 37.7917 27.0049 35.8738L30 27.6454L30.8218 29.9031C30.9518 30.26 31.2888 30.4817 31.6478 30.4817C31.7476 30.4817 31.8491 30.4646 31.9484 30.4285C32.4043 30.2623 32.6395 29.758 32.4736 29.3018Z" fill="#CEB992"></path><path d="M56.1896 19.1709L55.4873 17.2414C55.1468 16.3058 54.4623 15.5588 53.5599 15.138C52.6576 14.7172 51.6453 14.673 50.7098 15.0136L49.7792 15.3522L49.729 15.2141C49.4085 14.3335 48.7643 13.6305 47.915 13.2344C47.0658 12.8385 46.1133 12.7968 45.2326 13.1172C43.9099 13.5988 43.0525 14.7982 42.9381 16.1159C42.2248 15.9058 41.466 15.9281 40.7542 16.1872C39.6706 16.5816 38.9332 17.2797 38.5994 18.1544C38.5649 18.1369 38.5306 18.1193 38.4954 18.1028C37.646 17.7069 36.6934 17.6653 35.813 17.9858C35.2143 18.2037 34.7116 18.5693 34.3291 19.0258L33.7333 17.3889L35.3178 13.0357C35.6383 12.1551 35.5967 11.2025 35.2007 10.3533C34.8047 9.50401 34.1017 8.85983 33.2212 8.53933C32.3406 8.21882 31.388 8.26054 30.5388 8.6564C30.3474 8.74558 30.1672 8.85116 29.9979 8.97011C29.0747 8.32183 27.8719 8.1416 26.7791 8.53933C25.8985 8.85983 25.1955 9.50401 24.7995 10.3533C24.4036 11.2025 24.362 12.1551 24.6823 13.0357L26.2668 17.3889L25.6711 19.0258C25.2886 18.5694 24.7858 18.2037 24.1871 17.9858C23.3066 17.6653 22.354 17.7069 21.5047 18.1028C21.4386 18.1337 21.3743 18.1669 21.3106 18.2014C21.2842 18.1341 21.2563 18.0672 21.2254 18.0011C20.8295 17.1519 20.1265 16.5077 19.2459 16.1872C18.5342 15.9282 17.7753 15.9058 17.062 16.1159C16.9476 14.7981 16.0903 13.5988 14.7675 13.1172C13.8871 12.7968 12.9343 12.8385 12.0851 13.2344C11.2358 13.6304 10.5917 14.3334 10.2712 15.214L10.2209 15.3521L9.29029 15.0134C8.35456 14.6729 7.34241 14.7171 6.44007 15.1379C5.53773 15.5586 4.85312 16.3057 4.5127 17.2412L1.01337 26.8552C0.13998 29.2549 0.182753 31.8818 1.13396 34.2518L2.50341 37.6635L0.0532612 44.3953C-0.112793 44.8515 0.122402 45.3558 0.578494 45.5218C0.677751 45.5579 0.779235 45.575 0.879078 45.575C1.23802 45.575 1.57505 45.3534 1.70501 44.9965L4.27024 37.9487C4.3443 37.7453 4.34067 37.5216 4.26004 37.3207L2.76544 33.5971C1.97571 31.6294 1.94021 29.4487 2.66536 27.4565L6.16468 17.8425C6.34456 17.348 6.70632 16.9534 7.18304 16.7311C7.65975 16.5087 8.19471 16.4853 8.68924 16.6653L13.8709 18.5513C14.9193 18.9329 15.5023 20.0758 15.1704 21.0992C14.9989 21.6282 14.6302 22.0533 14.1321 22.2965C13.6338 22.5398 13.0723 22.5693 12.5515 22.3796L10.084 21.4816C9.86486 21.4019 9.62311 21.4124 9.41194 21.5109C9.20065 21.6094 9.03717 21.7878 8.95748 22.0068L7.61651 25.6909C7.53683 25.91 7.54737 26.1517 7.64581 26.3629C7.74436 26.5742 7.92272 26.7377 8.14174 26.8173L9.70959 27.388C10.9228 27.8296 11.8914 28.7172 12.4369 29.8872C12.9824 31.0572 13.0398 32.3697 12.5981 33.5828L10.3232 39.8327C10.1571 40.2889 10.3923 40.7932 10.8484 40.9592C11.3046 41.1252 11.8089 40.8901 11.9749 40.434L14.2499 34.1841C15.4929 30.7689 13.7257 26.9793 10.3106 25.7362L9.56861 25.4662L10.3083 23.4339L11.9499 24.0315C12.2456 24.1392 12.5484 24.2084 12.8528 24.2408C12.9035 25.6332 13.789 26.9222 15.1571 27.4203C15.5487 27.5628 15.9544 27.6337 16.359 27.6337C16.8643 27.6337 17.3679 27.523 17.8394 27.3032C17.9061 27.2721 17.9709 27.2385 18.035 27.2037C18.3906 28.1076 19.116 28.8612 20.0982 29.2187C20.4897 29.3612 20.8956 29.4321 21.3002 29.4321C21.8055 29.4321 22.309 29.3215 22.7806 29.1017C23.6299 28.7057 24.2741 28.0027 24.5946 27.1221L30.3762 11.2372C30.5361 10.7979 30.8575 10.4471 31.2813 10.2496C31.7049 10.0521 32.1802 10.0312 32.6195 10.1912C33.0589 10.351 33.4096 10.6725 33.6072 11.0962C33.8048 11.5199 33.8255 11.9952 33.6656 12.4345L30.9895 19.7868C30.8234 20.243 31.0586 20.7473 31.5147 20.9133C31.971 21.0793 32.4752 20.8442 32.6412 20.3881L32.7975 19.9587L33.7156 22.4811C33.7157 22.4814 35.4048 27.122 35.4048 27.122C35.4048 27.1221 35.405 27.1223 35.405 27.1224C35.7255 28.0028 36.3696 28.7056 37.2188 29.1016C37.6905 29.3214 38.1939 29.432 38.6992 29.432C39.1039 29.432 39.5097 29.3611 39.9012 29.2186C40.8846 28.8607 41.6105 28.1057 41.9656 27.2005C42.4765 27.4786 43.0534 27.6319 43.646 27.6319C44.0435 27.6319 44.4477 27.5638 44.8424 27.4202C46.2149 26.9206 47.0982 25.6334 47.1474 24.2405C47.4515 24.2082 47.754 24.1389 48.0496 24.0313L49.6911 23.4338L50.4308 25.4661L49.6888 25.7361C48.0344 26.3383 46.7136 27.5486 45.9696 29.1442C45.2256 30.7398 45.1474 32.5296 45.7496 34.184L48.0246 40.4339C48.1546 40.7907 48.4916 41.0124 48.8505 41.0124C48.9504 41.0124 49.0519 40.9953 49.1511 40.9592C49.6072 40.7932 49.8424 40.2888 49.6763 39.8327L47.4014 33.5828C46.9598 32.3697 47.0171 31.0572 47.5626 29.8872C48.1081 28.7172 49.0768 27.8295 50.2899 27.388L51.8578 26.8173C52.0768 26.7375 52.2553 26.5741 52.3537 26.3629C52.4522 26.1517 52.4628 25.91 52.383 25.6909L51.0422 22.0068C50.9624 21.7878 50.7989 21.6093 50.5877 21.5109C50.3765 21.4124 50.1347 21.4018 49.9156 21.4816L47.4482 22.3797C46.9271 22.5694 46.3659 22.5399 45.8675 22.2966C45.3695 22.0535 45.0008 21.6283 44.8293 21.0993C44.4974 20.076 45.0804 18.9331 46.1287 18.5516L51.3105 16.6655C51.8048 16.4854 52.3397 16.509 52.8166 16.7313C53.2934 16.9536 53.6551 17.3484 53.835 17.8428L54.5373 19.7723C54.7033 20.2284 55.2077 20.4633 55.6638 20.2975C56.1205 20.1314 56.3555 19.627 56.1896 19.1709ZM11.8727 15.9535L11.923 15.8154C12.2531 14.9084 13.2594 14.439 14.1663 14.7693C15.0732 15.0995 15.5425 16.1057 15.2123 17.0127L15.1377 17.2177C14.9296 17.0926 14.7074 16.9853 14.4721 16.8997L11.8727 15.9535ZM15.7587 25.7685C15.0172 25.4988 14.5601 24.7636 14.6118 24.0029C14.71 23.9645 14.8073 23.9231 14.9032 23.8762C15.8338 23.422 16.5225 22.6283 16.8424 21.6414C17.1744 20.6174 17.0237 19.5323 16.5166 18.6371C16.9262 17.8968 17.8251 17.5408 18.6446 17.8393C19.084 17.9991 19.4347 18.3206 19.6323 18.7443C19.8299 19.168 19.8506 19.6432 19.6908 20.0824C19.6908 20.0825 19.6908 20.0825 19.6906 20.0826L18.0017 24.7225C17.6719 25.6293 16.6653 26.0986 15.7587 25.7685ZM22.9431 26.521C22.7832 26.9603 22.4618 27.3111 22.038 27.5086C21.6144 27.7061 21.1391 27.7269 20.6997 27.567C20.2604 27.4071 19.9097 27.0857 19.7122 26.662C19.5146 26.2383 19.4939 25.763 19.6537 25.3237L21.3426 20.6838C21.5025 20.2444 21.8239 19.8937 22.2477 19.6961C22.6714 19.4987 23.1466 19.4778 23.5859 19.6378C24.0253 19.7976 24.376 20.119 24.5735 20.5428C24.7711 20.9664 24.7918 21.4417 24.632 21.8811L22.9431 26.521ZM27.2022 14.8193L26.3342 12.4345C26.1743 11.9952 26.195 11.5199 26.3927 11.0962C26.5903 10.6725 26.941 10.3512 27.3803 10.1912C27.8755 10.0108 28.416 10.0686 28.8563 10.3228C28.8079 10.4245 28.764 10.5289 28.7249 10.636L27.2022 14.8193ZM40.2879 26.662C40.0903 27.0857 39.7396 27.407 39.3003 27.567C38.861 27.7269 38.3857 27.7062 37.962 27.5086C37.5383 27.3111 37.2169 26.9604 37.0571 26.5212C37.0571 26.5211 37.0571 26.5211 37.0569 26.521L35.3677 21.8798C35.2083 21.4408 35.2292 20.9661 35.4265 20.5428C35.6241 20.119 35.9748 19.7977 36.4142 19.6378C36.8535 19.4778 37.3288 19.4987 37.7524 19.6961C38.1762 19.8937 38.4975 20.2444 38.6575 20.6838L40.3464 25.3236C40.5062 25.7629 40.4855 26.2382 40.2879 26.662ZM45.0969 23.8762C45.1928 23.9229 45.29 23.9644 45.3881 24.0026C45.4406 24.764 44.9852 25.4977 44.2414 25.7684C43.3345 26.0984 42.3282 25.6293 41.9982 24.7226C41.9982 24.7225 41.9983 24.7224 41.9981 24.7224L40.3092 20.0826C39.912 18.9912 40.264 18.2366 41.3554 17.8393C41.7948 17.6794 42.27 17.7002 42.6936 17.8977C43.0336 18.0562 43.3059 18.3144 43.4836 18.6366C42.9764 19.5319 42.8255 20.6172 43.1576 21.6413C43.4775 22.6283 44.1663 23.422 45.0969 23.8762ZM45.528 16.8996C45.2927 16.9852 45.0705 17.0925 44.8624 17.2176L44.7878 17.0125C44.4577 16.1057 44.927 15.0993 45.8338 14.7692C46.2732 14.6093 46.7484 14.6301 47.1721 14.8277C47.5958 15.0253 47.9171 15.376 48.0771 15.8154L48.1274 15.9535L45.528 16.8996Z" fill="#CEB992"></path></g><defs><clipPath id="clip0_150_530"><rect width="60" height="60" fill="white"></rect></clipPath></defs></svg>