<svg xmlns="http://www.w3.org/2000/svg" xmlns:xlink="http://www.w3.org/1999/xlink" id="Layer_1" x="0px" y="0px" viewBox="0 0 80 80" style="enable-background:new 0 0 80 80;" xml:space="preserve"><style type="text/css">	.st0{fill:#4F3A14;}	.st1{opacity:0.4;}	.st2{fill:none;stroke:#CEB992;stroke-width:6;stroke-linecap:round;stroke-linejoin:round;}</style><path class="st0" d="M35.3,63.8c-0.5,0-0.8-0.4-0.8-0.8v-9h-6.9v9c0,0.5-0.4,0.8-0.8,0.8H22c-0.5,0-0.8-0.4-0.8-0.8v-9h-1.5 c-0.5,0-0.8-0.4-0.8-0.8v-4.6c0-0.5,0.4-0.8,0.8-0.8h1c0.5,0,0.8,0.4,0.8,0.8c0,0.5-0.4,0.8-0.8,0.8l-0.2,0v2.9h20.8v-2.9l-16.6,0 c-0.5,0-0.8-0.4-0.8-0.8s0.4-0.8,0.8-0.8h7l-0.4-0.3c-1.7-1.5-2.7-3.7-2.7-5.9V31c0-4.3,2.7-8.1,6.8-9.5l0.2-0.1l-0.1-0.2 c-0.7-1.8-0.6-3.7,0.4-5.4l1.1-1.9c0.8-1.4,2.2-2.5,3.8-2.9c0.5-0.1,1.1-0.2,1.6-0.2c1.1,0,2.2,0.3,3.1,0.8c1.4,0.8,2.5,2.2,2.9,3.8 c0.4,1.6,0.2,3.3-0.6,4.7l-1.1,1.9c-1.1,1.9-3.2,3.1-5.4,3.1h-0.2l-0.1,0.2c0,0.3,0,0.7,0,1c0,1.7,0.2,3.3,0.5,5 c0.2,1,0.7,2,1.6,2.6l5.1,3.6c0.7,0.4,1.3,0.7,1.9,1c1.3,0.7,2,2.1,1.6,3.5c-0.4,1.4-1.5,2.2-2.9,2.2c-0.1,0-0.1,0-0.2,0l-0.4,0 l8.4,12.2l0.2-0.1c1.1-0.7,2.3-1,3.5-1c0.2,0,0.3,0,0.5,0c1,0.1,1.8,0.7,2.2,1.7s0.1,2-0.7,2.7l-3.2,3c-0.7,0.7-1.7,1.1-2.7,1.1 c-1.1,0-2.1-0.4-2.9-1.3c-2.2-2.3-4.3-4.7-6.5-7.3l-0.2-0.3c-1.1-1.3-2.3-2.7-3.4-3.9L43,50.7v2.4c0,0.5-0.4,0.8-0.8,0.8h-1.5v9 c0,0.5-0.4,0.8-0.8,0.8H35.3z M36.1,62.1H39v-8.2h-2.9V62.1z M22.9,62.1h2.9v-8.2h-2.9V62.1z M60.3,57c-1.2,0-2.4,0.5-3.4,1.4 l-2.7,2.5l0.4,0.5c0.4,0.5,1,0.7,1.7,0.7c0.6,0,1.1-0.2,1.6-0.6l3.2-3c0.4-0.3,0.3-0.8,0.2-0.9c0-0.1-0.2-0.5-0.7-0.6 C60.6,57,60.4,57,60.3,57z M30.5,42.4c0.5,3,3.1,5.2,6.2,5.2h5.5c0.2,0,0.5,0.1,0.6,0.3c1.5,1.5,3.5,3.9,5.4,6.1 c1.6,1.9,3.4,4,4.8,5.5l0.1,0.2l2.3-2.1l-9.1-13.2c-1-1.4-2.5-2.2-4.2-2.2H30.5L30.5,42.4z M45.9,41.5l0.4,0.4 c0.4,0.4,0.9,0.6,1.4,0.6l1,0.1l0.1,0c0.7,0,1.2-0.5,1.3-1c0.1-0.5,0-1.2-0.7-1.6c-0.5-0.2-0.9-0.4-1.3-0.7L48,39.3L45.9,41.5z  M36.6,22.9c-3.6,1-6.1,4.3-6.1,8.1v9.5h10.9l-3.7-2.2c-1.5-0.9-2.5-2.3-2.9-4L34,31.1c-0.1-0.5,0.2-0.9,0.6-1c0.1,0,0.1,0,0.2,0 c0.4,0,0.7,0.3,0.8,0.7l0.7,3.1c0.3,1.2,1,2.3,2.1,2.9l6.1,3.6l2-2.1l-4.3-3.1c-1.2-0.9-2-2.2-2.3-3.7c-0.3-1.7-0.4-3.5-0.5-5.2 c0-0.5,0-1,0-1.4l0-0.1l-0.1,0c-0.4-0.1-0.7-0.3-1-0.5c-0.6-0.3-1.1-0.8-1.6-1.3l-0.1-0.1L36.6,22.9z M42.6,12.6 c-0.4,0-0.8,0.1-1.2,0.2c-1.2,0.3-2.1,1.1-2.8,2.1l-1.1,1.9c-0.6,1-0.8,2.3-0.5,3.4s1.1,2.1,2.1,2.8c0.7,0.4,1.5,0.6,2.3,0.6 c1.6,0,3.1-0.9,3.9-2.3l1.1-1.9c1.2-2.2,0.5-4.9-1.7-6.2C44.1,12.8,43.3,12.6,42.6,12.6z"></path><g class="st1">	<path class="st2" d="M40,72C22.3,72,8,57.7,8,40S22.3,8,40,8s32,14.3,32,32S57.7,72,40,72z"></path>	<path class="st2" d="M62.6,17.4L17.4,62.6"></path></g></svg>