<svg xmlns="http://www.w3.org/2000/svg" width="80" height="80" viewBox="0 0 80 80" fill="none"><path d="M56.8974 63.0469H23.1024C22.9075 63.0469 22.7206 62.9695 22.5829 62.8317C22.4451 62.6939 22.3677 62.5071 22.3677 62.3122V20.4357C22.3677 20.2409 22.4451 20.054 22.5829 19.9162C22.7206 19.7785 22.9075 19.701 23.1024 19.701H56.8974C57.0923 19.701 57.2791 19.7785 57.4169 19.9162C57.5547 20.054 57.6321 20.2409 57.6321 20.4357V57.287C57.6321 57.4819 57.5547 57.6688 57.4169 57.8065C57.2791 57.9443 57.0923 58.0217 56.8974 58.0217C56.7026 58.0217 56.5157 57.9443 56.3779 57.8065C56.2401 57.6688 56.1627 57.4819 56.1627 57.287V21.1704H23.837V61.5775H56.1627V55.2887C56.1627 55.0939 56.2401 54.907 56.3779 54.7692C56.5157 54.6314 56.7026 54.554 56.8974 54.554C57.0923 54.554 57.2791 54.6314 57.4169 54.7692C57.5547 54.907 57.6321 55.0939 57.6321 55.2887V62.3122C57.6321 62.5071 57.5547 62.6939 57.4169 62.8317C57.2791 62.9695 57.0923 63.0469 56.8974 63.0469Z" fill="#4F3A14"></path><path d="M47.5285 58.6389H32.4677C32.2728 58.6389 32.0859 58.5615 31.9482 58.4237C31.8104 58.2859 31.733 58.099 31.733 57.9042C31.7316 56.7842 31.2861 55.7105 30.4942 54.9186C29.7023 54.1267 28.6286 53.6812 27.5086 53.6798C27.3138 53.6798 27.1269 53.6024 26.9891 53.4646C26.8513 53.3269 26.7739 53.14 26.7739 52.9451V29.8029C26.7739 29.608 26.8513 29.4211 26.9891 29.2834C27.1269 29.1456 27.3138 29.0682 27.5086 29.0682C28.6286 29.0668 29.7023 28.6213 30.4942 27.8294C31.2861 27.0375 31.7316 25.9638 31.733 24.8438C31.733 24.649 31.8104 24.4621 31.9482 24.3243C32.0859 24.1865 32.2728 24.1091 32.4677 24.1091H47.5285C47.7233 24.1091 47.9102 24.1865 48.048 24.3243C48.1858 24.4621 48.2632 24.649 48.2632 24.8438C48.2645 25.9638 48.71 27.0375 49.502 27.8294C50.2939 28.6213 51.3676 29.0668 52.4876 29.0682C52.6824 29.0682 52.8693 29.1456 53.007 29.2834C53.1448 29.4211 53.2222 29.608 53.2222 29.8029V52.9451C53.2222 53.14 53.1448 53.3269 53.007 53.4646C52.8693 53.6024 52.6824 53.6798 52.4876 53.6798C51.3676 53.6812 50.2939 54.1267 49.502 54.9186C48.71 55.7105 48.2645 56.7842 48.2632 57.9042C48.2632 58.099 48.1858 58.2859 48.048 58.4237C47.9102 58.5615 47.7233 58.6389 47.5285 58.6389ZM33.1553 57.1695H46.8408C47.0049 55.9243 47.5752 54.768 48.4633 53.8799C49.3514 52.9918 50.5077 52.4215 51.7529 52.2575V30.4905C50.5077 30.3265 49.3514 29.7562 48.4633 28.8681C47.5752 27.98 47.0049 26.8237 46.8408 25.5785H33.1553C32.9913 26.8237 32.421 27.98 31.5329 28.8681C30.6448 29.7562 29.4885 30.3265 28.2433 30.4905V52.2575C29.4885 52.4215 30.6448 52.9918 31.5329 53.8799C32.421 54.768 32.9913 55.9243 33.1553 57.1695Z" fill="#4F3A14"></path><path d="M23.1026 21.1703C22.9255 21.1697 22.7545 21.1052 22.6212 20.9886C22.4878 20.872 22.4011 20.7112 22.377 20.5358C22.3528 20.3603 22.3929 20.182 22.4898 20.0337C22.5866 19.8855 22.7338 19.7772 22.9042 19.7288L51.5565 11.6474C51.6657 11.6168 51.7804 11.6119 51.8918 11.633C52.0032 11.6541 52.1081 11.7007 52.1985 11.7692C52.2889 11.8376 52.3622 11.926 52.4126 12.0275C52.4631 12.129 52.4895 12.2408 52.4896 12.3542V20.4356C52.4896 20.6304 52.4122 20.8173 52.2744 20.9551C52.1366 21.0929 51.9497 21.1703 51.7549 21.1703C51.56 21.1703 51.3732 21.0929 51.2354 20.9551C51.0976 20.8173 51.0202 20.6304 51.0202 20.4356V13.3247L23.3017 21.1423C23.2369 21.1609 23.1699 21.1703 23.1026 21.1703Z" fill="#4F3A14"></path><path d="M40.0001 40.471C39.8124 40.4716 39.6315 40.4004 39.4947 40.2719C38.774 39.5879 35.1792 36.068 35.1792 33.95C35.1785 33.388 35.3298 32.8363 35.6169 32.3532C35.904 31.8702 36.3164 31.4737 36.8103 31.2057C37.3043 30.9377 37.8615 30.8082 38.423 30.8309C38.9845 30.8536 39.5294 31.0276 40.0001 31.3345C40.4707 31.0277 41.0153 30.8537 41.5766 30.8309C42.1378 30.8081 42.6948 30.9374 43.1887 31.205C43.6825 31.4726 44.0949 31.8687 44.3822 32.3514C44.6696 32.834 44.8212 33.3853 44.8211 33.947C44.8211 36.0651 41.2263 39.5849 40.5056 40.2689C40.3692 40.3985 40.1883 40.4708 40.0001 40.471ZM38.2979 32.2977C37.8606 32.2981 37.4413 32.472 37.1321 32.7812C36.8228 33.0904 36.6489 33.5097 36.6486 33.947C36.6486 34.9344 38.4683 37.1627 40.0001 38.7077C41.5312 37.1649 43.3517 34.933 43.3517 33.947C43.3521 33.6193 43.2547 33.299 43.0721 33.0269C42.8894 32.7549 42.6297 32.5435 42.3263 32.4198C42.0228 32.2961 41.6894 32.2658 41.3686 32.3326C41.0478 32.3995 40.7542 32.5605 40.5254 32.7951C40.3846 32.9314 40.1962 33.0077 40.0001 33.0077C39.8041 33.0077 39.6157 32.9314 39.4748 32.7951C39.322 32.6375 39.1391 32.5123 38.9369 32.4268C38.7347 32.3414 38.5174 32.2975 38.2979 32.2977Z" fill="#4F3A14"></path><path d="M48.0811 44.5725H31.9183C31.7234 44.5725 31.5366 44.4951 31.3988 44.3573C31.261 44.2195 31.1836 44.0327 31.1836 43.8378C31.1836 43.643 31.261 43.4561 31.3988 43.3183C31.5366 43.1806 31.7234 43.1031 31.9183 43.1031H48.0811C48.276 43.1031 48.4628 43.1806 48.6006 43.3183C48.7384 43.4561 48.8158 43.643 48.8158 43.8378C48.8158 44.0327 48.7384 44.2195 48.6006 44.3573C48.4628 44.4951 48.276 44.5725 48.0811 44.5725Z" fill="#4F3A14"></path><path d="M48.0811 48.9808H31.9183C31.7234 48.9808 31.5366 48.9034 31.3988 48.7656C31.261 48.6279 31.1836 48.441 31.1836 48.2462C31.1836 48.0513 31.261 47.8644 31.3988 47.7267C31.5366 47.5889 31.7234 47.5115 31.9183 47.5115H48.0811C48.276 47.5115 48.4628 47.5889 48.6006 47.7267C48.7384 47.8644 48.8158 48.0513 48.8158 48.2462C48.8158 48.441 48.7384 48.6279 48.6006 48.7656C48.4628 48.9034 48.276 48.9808 48.0811 48.9808Z" fill="#4F3A14"></path><g opacity="0.4"><path d="M40 72C22.3269 72 8 57.6731 8 40C8 22.3269 22.3269 8 40 8C57.6731 8 72 22.3269 72 40C72 57.6731 57.6731 72 40 72Z" stroke="#CEB992" stroke-width="6" stroke-linecap="round" stroke-linejoin="round"></path><path d="M62.624 17.376L17.376 62.624" stroke="#CEB992" stroke-width="6" stroke-linecap="round" stroke-linejoin="round"></path></g></svg>