<svg xmlns="http://www.w3.org/2000/svg" width="80" height="80" viewBox="0 0 80 80" fill="none"><path d="M18.973 59.6943H61.0282C61.2055 59.6943 61.3755 59.6239 61.5009 59.4985C61.6262 59.3731 61.6967 59.2031 61.6967 59.0258V33.669C61.6967 33.4917 61.6262 33.3217 61.5009 33.1963C61.3755 33.071 61.2055 33.0005 61.0282 33.0005C60.8509 33.0005 60.6809 33.071 60.5555 33.1963C60.4302 33.3217 60.3597 33.4917 60.3597 33.669V58.3574H19.6414V33.669C19.6414 33.4917 19.571 33.3217 19.4456 33.1963C19.3203 33.071 19.1502 33.0005 18.973 33.0005C18.7957 33.0005 18.6256 33.071 18.5003 33.1963C18.3749 33.3217 18.3045 33.4917 18.3045 33.669V59.0258C18.3045 59.2031 18.3749 59.3731 18.5003 59.4985C18.6256 59.6239 18.7957 59.6943 18.973 59.6943Z" fill="#4F3A14" stroke="#4F3A14" stroke-width="0.1"></path><path d="M18.9725 34.3374L18.9725 34.3374L18.9755 34.3373C19.129 34.3289 19.2749 34.268 19.3887 34.1647L26.1869 28.7632C26.2724 28.717 26.3469 28.6527 26.4051 28.5747C26.4642 28.4955 26.505 28.4041 26.5245 28.3073C26.5441 28.2104 26.5419 28.1104 26.5182 28.0144C26.4944 27.9185 26.4497 27.829 26.3872 27.7524C26.3248 27.6758 26.2461 27.6141 26.1569 27.5715C26.0677 27.529 25.9701 27.5068 25.8713 27.5065C25.7725 27.5062 25.6748 27.5278 25.5853 27.5698C25.4975 27.6111 25.4197 27.6709 25.3573 27.7452L18.5583 33.1473L18.5581 33.1475C18.4503 33.2339 18.372 33.3516 18.3339 33.4843C18.2958 33.6171 18.2997 33.7584 18.3451 33.8888C18.3905 34.0192 18.4752 34.1324 18.5876 34.2127C18.6999 34.293 18.8344 34.3366 18.9725 34.3374Z" fill="#4F3A14" stroke="#4F3A14" stroke-width="0.1"></path><path d="M59.0199 58.3574H21.0111L35.6016 47.6062C35.6016 47.6061 35.6017 47.6061 35.6018 47.6061L35.6018 47.606L59.0199 58.3574ZM59.0199 58.3574L44.3681 47.6062C44.297 47.5544 44.2368 47.4891 44.191 47.4141C44.1451 47.339 44.1145 47.2557 44.1008 47.1688C44.0872 47.0819 44.0907 46.9932 44.1114 46.9077C44.132 46.8222 44.1693 46.7416 44.2211 46.6705C44.2729 46.5994 44.3381 46.5392 44.4132 46.4933C44.4882 46.4475 44.5716 46.4168 44.6585 46.4032C44.7454 46.3895 44.8341 46.3931 44.9196 46.4138C45.0051 46.4344 45.0857 46.4717 45.1568 46.5235L45.157 46.5236L61.4214 58.4838C61.5409 58.5626 61.6319 58.6777 61.6811 58.8121C61.7305 58.9469 61.7351 59.0941 61.6943 59.2317L61.694 59.233C61.6486 59.3726 61.5586 59.4934 61.4378 59.5768C61.3173 59.6599 61.1729 59.7012 61.0267 59.6943H18.9739C18.8277 59.7012 18.6833 59.6599 18.5628 59.5768C18.442 59.4934 18.352 59.3726 18.3067 59.2331" fill="#4F3A14" stroke="#4F3A14" stroke-width="0.1"></path><path d="M45.449 21.9683L45.4495 21.9683C45.5876 21.9675 45.7221 21.9239 45.8345 21.8436C45.9468 21.7633 46.0315 21.6501 46.077 21.5197C46.1224 21.3893 46.1263 21.248 46.0882 21.1152C46.05 20.9825 45.9717 20.8648 45.864 20.7784L45.8638 20.7783L40.4152 16.449L40.4151 16.449C40.297 16.3557 40.151 16.305 40.0006 16.305C39.8502 16.305 39.7042 16.3557 39.5862 16.449L39.5861 16.449L34.1374 20.7783L34.1373 20.7781L34.1342 20.7811C34.0124 20.896 33.9382 21.0525 33.9263 21.2195C33.9144 21.3866 33.9656 21.552 34.0698 21.6831C34.174 21.8142 34.3236 21.9014 34.489 21.9275C34.6545 21.9535 34.8236 21.9166 34.9631 21.8238L34.9632 21.824L34.9665 21.8214L40.0006 17.8261L45.0345 21.8212C45.0346 21.8212 45.0346 21.8213 45.0347 21.8213C45.1522 21.9156 45.2982 21.9674 45.449 21.9683Z" fill="#4F3A14" stroke="#4F3A14" stroke-width="0.1"></path><path d="M61.4414 33.1218L54.6412 27.7188C54.5742 27.6559 54.495 27.6076 54.4085 27.5767C54.3213 27.5456 54.2286 27.533 54.1363 27.5396C54.0439 27.5462 53.954 27.5719 53.8721 27.6151C53.7902 27.6582 53.7182 27.7179 53.6606 27.7904C53.603 27.8629 53.5611 27.9465 53.5375 28.036C53.5139 28.1255 53.5092 28.2189 53.5236 28.3104C53.538 28.4018 53.5712 28.4893 53.6212 28.5672C53.6708 28.6445 53.7357 28.7107 53.812 28.7618L60.6133 34.1905C60.6133 34.1905 60.6134 34.1905 60.6134 34.1905L61.4414 33.1218Z" fill="#4F3A14" stroke="#4F3A14" stroke-width="0.1"></path><path d="M40.0013 50.0587C41.4023 50.0615 42.7606 49.5764 43.8428 48.6868L43.8428 48.6867L61.4566 34.1839L61.4567 34.1837C61.5932 34.0703 61.6791 33.9072 61.6954 33.7305C61.7117 33.5537 61.6571 33.3778 61.5436 33.2413C61.4302 33.1048 61.2671 33.0189 61.0904 33.0026C60.9137 32.9863 60.7377 33.0409 60.6012 33.1544L42.9877 47.6571C42.1459 48.3482 41.0905 48.726 40.0013 48.726C38.9122 48.726 37.8567 48.3482 37.015 47.6571L19.4015 33.1544C19.4015 33.1543 19.4014 33.1543 19.4014 33.1543C19.2649 33.0409 19.089 32.9863 18.9123 33.0026C18.7355 33.0189 18.5725 33.1048 18.4591 33.2413C18.3456 33.3778 18.291 33.5537 18.3073 33.7305C18.3236 33.9072 18.4095 34.0703 18.546 34.1837L18.5461 34.1839L36.1599 48.6867L36.1599 48.6868C37.2421 49.5764 38.6004 50.0615 40.0013 50.0587ZM40.0013 50.0587C40.0013 50.0587 40.0013 50.0587 40.0012 50.0587L40.0013 50.0087L40.0014 50.0587C40.0014 50.0587 40.0014 50.0587 40.0013 50.0587Z" fill="#4F3A14" stroke="#4F3A14" stroke-width="0.1"></path><path d="M53.7522 39.7447C53.8775 39.8701 54.0475 39.9405 54.2248 39.9405C54.4021 39.9405 54.5721 39.8701 54.6975 39.7447C54.8229 39.6194 54.8933 39.4493 54.8933 39.272V21.2996C54.8933 21.1223 54.8229 20.9523 54.6975 20.8269C54.5721 20.7016 54.4021 20.6312 54.2248 20.6312H25.7757C25.5984 20.6312 25.4284 20.7016 25.303 20.8269C25.1777 20.9523 25.1072 21.1223 25.1072 21.2996V39.272C25.1072 39.4493 25.1777 39.6194 25.303 39.7447C25.4284 39.8701 25.5984 39.9405 25.7757 39.9405C25.953 39.9405 26.123 39.8701 26.2484 39.7447C26.3737 39.6194 26.4441 39.4493 26.4441 39.272V21.9681H53.5564V39.272C53.5564 39.4493 53.6268 39.6194 53.7522 39.7447Z" fill="#4F3A14" stroke="#4F3A14" stroke-width="0.1"></path><path d="M40.0006 40.5219H40.0006C41.024 40.5211 42.0373 40.3187 42.9825 39.9263C43.9276 39.5339 44.7863 38.9592 45.5094 38.235C46.2324 37.5107 46.8058 36.6512 47.1967 35.7053C47.5876 34.7595 47.7883 33.746 47.7875 32.7226V32.7225C47.7851 31.183 47.3263 29.6787 46.4691 28.3997C45.612 27.1208 44.395 26.1247 42.9719 25.5372C41.5488 24.9498 39.9835 24.7973 38.4738 25.0992C36.9641 25.4011 35.5778 26.1437 34.49 27.2332C33.4022 28.3227 32.6618 29.7102 32.3624 31.2204C32.0629 32.7306 32.2179 34.2956 32.8076 35.7178C33.3973 37.1399 34.3954 38.3553 35.6757 39.2104C36.956 40.0655 38.461 40.5219 40.0006 40.5219ZM36.4146 27.3861C37.4758 26.6763 38.7238 26.2974 40.0005 26.2973C41.7065 26.2989 43.3424 26.9756 44.551 28.1796C45.7596 29.3836 46.4425 31.0169 46.4506 32.7228C46.4554 33.9996 46.0813 35.249 45.3755 36.3129C44.6698 37.3768 43.6641 38.2073 42.486 38.6993C41.3078 39.1913 40.0102 39.3225 38.7574 39.0764C37.5046 38.8303 36.353 38.2179 35.4485 37.3169C34.544 36.4158 33.9272 35.2666 33.6764 34.0147C33.4255 32.7629 33.5518 31.4648 34.0393 30.2847C34.5267 29.1047 35.3534 28.0959 36.4146 27.3861Z" fill="#4F3A14" stroke="#4F3A14" stroke-width="0.1"></path><path d="M38.6496 32.9815C39.0494 33.2487 39.5194 33.3912 40.0002 33.3912C40.1775 33.3912 40.3475 33.3208 40.4729 33.1955C40.5982 33.0701 40.6687 32.9001 40.6687 32.7228C40.6687 32.5455 40.5982 32.3755 40.4729 32.2501C40.3475 32.1247 40.1775 32.0543 40.0002 32.0543C39.7838 32.0543 39.5723 31.9901 39.3923 31.8699C39.2124 31.7497 39.0722 31.5788 38.9893 31.3789C38.9065 31.179 38.8849 30.959 38.9271 30.7467C38.9693 30.5345 39.0735 30.3395 39.2265 30.1865C39.3795 30.0335 39.5745 29.9293 39.7867 29.887C39.999 29.8448 40.219 29.8665 40.4189 29.9493C40.6188 30.0321 40.7897 30.1724 40.91 30.3523C41.0302 30.5322 41.0944 30.7438 41.0944 30.9602C41.0944 31.1375 41.1648 31.3075 41.2901 31.4328C41.4155 31.5582 41.5855 31.6286 41.7628 31.6286C41.9401 31.6286 42.1101 31.5582 42.2355 31.4328C42.3608 31.3075 42.4313 31.1375 42.4313 30.9602C42.4313 30.4794 42.2887 30.0093 42.0216 29.6095C41.7544 29.2098 41.3748 28.8982 40.9305 28.7142C40.4863 28.5302 39.9975 28.482 39.5259 28.5758C39.0543 28.6696 38.6212 28.9012 38.2812 29.2411C37.9412 29.5811 37.7097 30.0143 37.6159 30.4859C37.5221 30.9575 37.5702 31.4463 37.7542 31.8905C37.9382 32.3347 38.2498 32.7144 38.6496 32.9815Z" fill="#4F3A14" stroke="#4F3A14" stroke-width="0.1"></path><path d="M38.2812 36.2044C38.7371 36.6603 39.3554 36.9164 40.0002 36.9164C40.645 36.9164 41.2633 36.6603 41.7192 36.2044C42.1751 35.7484 42.4313 35.1301 42.4313 34.4853C42.4313 33.8406 42.1751 33.2222 41.7192 32.7663C41.2633 32.3104 40.645 32.0542 40.0002 32.0542C39.8229 32.0542 39.6529 32.1247 39.5275 32.25C39.4022 32.3754 39.3317 32.5454 39.3317 32.7227C39.3317 32.9 39.4022 33.07 39.5275 33.1954C39.6529 33.3207 39.8229 33.3912 40.0002 33.3912C40.2166 33.3912 40.4281 33.4553 40.6081 33.5756C40.788 33.6958 40.9283 33.8667 41.0111 34.0666C41.0939 34.2665 41.1155 34.4865 41.0733 34.6988C41.0311 34.911 40.9269 35.106 40.7739 35.259C40.6209 35.412 40.4259 35.5162 40.2137 35.5584C40.0014 35.6007 39.7814 35.579 39.5815 35.4962C39.3816 35.4134 39.2107 35.2731 39.0905 35.0932C38.9702 34.9133 38.9061 34.7017 38.9061 34.4853C38.9061 34.308 38.8356 34.138 38.7103 34.0126C38.5849 33.8873 38.4149 33.8169 38.2376 33.8169C38.0603 33.8169 37.8903 33.8873 37.7649 34.0126C37.6396 34.138 37.5691 34.308 37.5691 34.4853C37.5691 35.1301 37.8253 35.7484 38.2812 36.2044Z" fill="#4F3A14" stroke="#4F3A14" stroke-width="0.1"></path><path d="M39.5276 37.5615C39.653 37.6869 39.823 37.7573 40.0003 37.7573C40.1776 37.7573 40.3476 37.6869 40.473 37.5615C40.5983 37.4362 40.6688 37.2662 40.6688 37.0889V36.254C40.6688 36.0767 40.5983 35.9066 40.473 35.7813C40.3476 35.6559 40.1776 35.5855 40.0003 35.5855C39.823 35.5855 39.653 35.6559 39.5276 35.7813C39.4023 35.9066 39.3318 36.0767 39.3318 36.254V37.0889C39.3318 37.2662 39.4023 37.4362 39.5276 37.5615Z" fill="#4F3A14" stroke="#4F3A14" stroke-width="0.1"></path><path d="M39.5276 29.6639C39.653 29.7893 39.823 29.8597 40.0003 29.8597C40.1776 29.8597 40.3476 29.7893 40.473 29.6639C40.5983 29.5386 40.6688 29.3685 40.6688 29.1913V28.4615C40.6688 28.2842 40.5983 28.1142 40.473 27.9888C40.3476 27.8634 40.1776 27.793 40.0003 27.793C39.823 27.793 39.653 27.8634 39.5276 27.9888C39.4023 28.1142 39.3318 28.2842 39.3318 28.4615V29.1913C39.3318 29.3685 39.4023 29.5386 39.5276 29.6639Z" fill="#4F3A14" stroke="#4F3A14" stroke-width="0.1"></path><g opacity="0.4"><path d="M40 72C22.3269 72 8 57.6731 8 40C8 22.3269 22.3269 8 40 8C57.6731 8 72 22.3269 72 40C72 57.6731 57.6731 72 40 72Z" stroke="#CEB992" stroke-width="6" stroke-linecap="round" stroke-linejoin="round"></path><path d="M62.624 17.3761L17.376 62.6241" stroke="#CEB992" stroke-width="6" stroke-linecap="round" stroke-linejoin="round"></path></g></svg>