<svg xmlns="http://www.w3.org/2000/svg" xmlns:xlink="http://www.w3.org/1999/xlink" id="Layer_1" x="0px" y="0px" viewBox="0 0 80 80" style="enable-background:new 0 0 80 80;" xml:space="preserve"><style type="text/css">	.st0{fill:#4F3A14;}	.st1{opacity:0.4;}	.st2{fill:none;stroke:#CEB992;stroke-width:6;stroke-linecap:round;stroke-linejoin:round;}</style><path class="st0" d="M19,59.7c-0.2,0-0.3,0-0.4-0.1c-0.1-0.1-0.2-0.2-0.3-0.4c0-0.1,0-0.3,0-0.4l0-25.1l0.1-0.1l-0.1,0l0-0.1 c0,0,0-0.1,0.1-0.1l0.1-0.1l0.1-0.1l6.6-5.2l0-6.6c0-0.2,0.1-0.4,0.2-0.5c0.1-0.1,0.3-0.2,0.5-0.2h8.6l5.2-4.2 c0.1-0.1,0.3-0.2,0.4-0.2c0.2,0,0.3,0.1,0.4,0.2l5.3,4.2l8.5,0c0.2,0,0.4,0.1,0.5,0.2c0.1,0.1,0.2,0.3,0.2,0.5v6.6l6.5,5.1 c0.1,0.1,0.2,0.2,0.3,0.4c0,0.1,0,0.3,0,0.4l0,25c0,0.1,0,0.2,0,0.4c0,0.2-0.1,0.3-0.3,0.4c-0.1,0.1-0.3,0.1-0.4,0.1 C61.1,59.7,19,59.7,19,59.7z M58.9,58.3L44.8,48l-0.9,0.8c-1.1,0.9-2.5,1.4-3.9,1.4c-1.4,0-2.8-0.5-3.9-1.4L35.2,48l-14,10.3H58.9z  M60.3,57.6V35.2L45.9,47L60.3,57.6z M19.7,57.6L34.1,47L19.7,35.2V57.6z M26.5,27.9c0,0,0.1,0.1,0.1,0.1c0,0.1,0,0.2,0,0.3 c0,0.1-0.1,0.1-0.1,0.2l0,10.5L37,47.6c0.8,0.7,1.9,1.1,3,1.1c1.1,0,2.1-0.4,3-1.1l10.6-8.7l0-10.5c0-0.2,0-0.3,0-0.4l0-6h-27V27.9z  M54.9,37.7l4.9-4.1l-4.9-3.9V37.7z M25.1,37.7v-8l-5,3.9L25.1,37.7z M43.4,20.6L40,17.9l-3.4,2.7H43.4z"></path><path class="st0" d="M40,40.6c-1.6,0-3.1-0.5-4.4-1.3c-1.3-0.9-2.3-2.1-2.9-3.5c-0.6-1.4-0.8-3-0.4-4.5c0.3-1.5,1-2.9,2.1-4 c1.1-1.1,2.5-1.8,4-2.1c0.5-0.1,1-0.2,1.5-0.2c1,0,2,0.2,3,0.6c1.4,0.6,2.7,1.6,3.5,2.9c0.9,1.3,1.3,2.8,1.3,4.4c0,1-0.2,2-0.6,3 c-0.4,1-1,1.8-1.7,2.5C44.8,39,44,39.6,43,40C42,40.4,41,40.6,40,40.6L40,40.6z M40,26.3c-1.3,0-2.5,0.4-3.6,1.1 c-1.1,0.7-1.9,1.7-2.4,2.9s-0.6,2.5-0.4,3.7s0.9,2.4,1.8,3.3s2,1.5,3.3,1.7c0.4,0.1,0.8,0.1,1.2,0.1c0.9,0,1.7-0.2,2.5-0.5 c1.2-0.5,2.2-1.3,2.9-2.4s1.1-2.3,1.1-3.6c0-1.7-0.7-3.3-1.9-4.5C43.3,27,41.7,26.3,40,26.3L40,26.3z"></path><path class="st0" d="M35.7,39.2c1.3,0.8,2.8,1.3,4.3,1.3c1,0,2-0.2,3-0.6c0.9-0.4,1.8-1,2.5-1.7c0.7-0.7,1.3-1.6,1.7-2.5 c0.4-0.9,0.6-1.9,0.6-3c0-1.5-0.5-3-1.3-4.3c-0.9-1.3-2.1-2.3-3.5-2.8c-1.4-0.6-3-0.7-4.5-0.4c-1.5,0.3-2.9,1-4,2.1s-1.8,2.5-2.1,4 c-0.3,1.5-0.1,3.1,0.4,4.5C33.4,37.1,34.4,38.3,35.7,39.2z M34,30.3c0.5-1.2,1.3-2.2,2.4-2.9c1.1-0.7,2.3-1.1,3.6-1.1 c1.7,0,3.4,0.7,4.6,1.9c1.2,1.2,1.9,2.9,1.9,4.6c0,1.3-0.4,2.5-1.1,3.6c-0.7,1.1-1.7,1.9-2.9,2.4c-1.2,0.5-2.5,0.6-3.8,0.4 c-1.3-0.2-2.4-0.9-3.3-1.8s-1.5-2.1-1.8-3.3C33.4,32.8,33.5,31.5,34,30.3z"></path><path class="st0" d="M40,37.8c-0.2,0-0.4-0.1-0.5-0.2c-0.1-0.1-0.2-0.3-0.2-0.5v-0.2c-0.4-0.1-0.8-0.3-1-0.6 c-0.5-0.5-0.7-1.1-0.7-1.8c0-0.2,0.1-0.4,0.2-0.5c0.1-0.1,0.3-0.2,0.5-0.2c0.2,0,0.4,0.1,0.5,0.2c0.1,0.1,0.2,0.3,0.2,0.5 c0,0.2,0.1,0.4,0.2,0.6c0.1,0.2,0.3,0.3,0.5,0.4c0.1,0.1,0.3,0.1,0.4,0.1c0.1,0,0.1,0,0.2,0c0.2,0,0.4-0.1,0.5-0.3 c0.1-0.1,0.2-0.3,0.3-0.5c0-0.2,0-0.4-0.1-0.6c-0.1-0.2-0.2-0.4-0.4-0.5c-0.2-0.1-0.4-0.2-0.6-0.2c-0.5,0-1-0.1-1.4-0.4 c-0.4-0.3-0.7-0.7-0.9-1.1c-0.2-0.5-0.2-0.9-0.1-1.4c0.1-0.5,0.3-0.9,0.7-1.3c0.3-0.3,0.6-0.5,1-0.6v-0.1c0-0.2,0.1-0.4,0.2-0.5 c0.1-0.1,0.3-0.2,0.5-0.2c0.2,0,0.4,0.1,0.5,0.2c0.1,0.1,0.2,0.3,0.2,0.5v0.1l0,0c0.1,0,0.1,0,0.2,0.1c0.5,0.2,0.8,0.5,1.1,0.9 c0.3,0.4,0.4,0.9,0.4,1.4c0,0.2-0.1,0.4-0.2,0.5c-0.1,0.1-0.3,0.2-0.5,0.2s-0.4-0.1-0.5-0.2C41.1,31.3,41,31.2,41,31 c0-0.2-0.1-0.4-0.2-0.6c-0.1-0.2-0.3-0.3-0.5-0.4c-0.1-0.1-0.3-0.1-0.4-0.1c-0.1,0-0.1,0-0.2,0c-0.2,0-0.4,0.1-0.5,0.3 c-0.1,0.1-0.2,0.3-0.3,0.5s0,0.4,0.1,0.6c0.1,0.2,0.2,0.4,0.4,0.5c0.2,0.1,0.4,0.2,0.6,0.2c0.7,0,1.3,0.3,1.8,0.7 c0.5,0.5,0.7,1.1,0.7,1.8c0,0.7-0.3,1.3-0.7,1.8c-0.3,0.3-0.6,0.5-1,0.6v0.2c0,0.2-0.1,0.4-0.2,0.5C40.4,37.7,40.2,37.8,40,37.8z"></path><path class="st0" d="M40.8,35.3c-0.2,0.2-0.4,0.3-0.6,0.3c-0.2,0-0.5,0-0.7-0.1c-0.2-0.1-0.4-0.2-0.5-0.4c-0.1-0.2-0.2-0.4-0.2-0.6 c0-0.2-0.1-0.3-0.2-0.4c-0.1-0.1-0.3-0.2-0.4-0.2s-0.3,0.1-0.4,0.2c-0.1,0.1-0.2,0.3-0.2,0.4c0,0.6,0.3,1.2,0.7,1.7 c0.3,0.3,0.7,0.5,1.1,0.6v0.3c0,0.2,0.1,0.3,0.2,0.4c0.1,0.1,0.3,0.2,0.4,0.2s0.3-0.1,0.4-0.2c0.1-0.1,0.2-0.3,0.2-0.4v-0.3 c0.4-0.1,0.8-0.3,1.1-0.6c0.4-0.4,0.7-1.1,0.7-1.7c0-0.6-0.3-1.2-0.7-1.7c-0.4-0.4-1.1-0.7-1.7-0.7c0,0,0,0,0,0 c-0.2,0-0.4-0.1-0.6-0.2c-0.2-0.1-0.3-0.3-0.4-0.5c-0.1-0.2-0.1-0.4-0.1-0.7c0-0.2,0.2-0.4,0.3-0.6c0.2-0.2,0.4-0.3,0.6-0.3 c0.2,0,0.5,0,0.7,0.1c0.2,0.1,0.4,0.2,0.5,0.4c0.1,0.2,0.2,0.4,0.2,0.6c0,0.2,0.1,0.3,0.2,0.4c0.1,0.1,0.3,0.2,0.4,0.2 s0.3-0.1,0.4-0.2c0.1-0.1,0.2-0.3,0.2-0.4c0-0.5-0.1-0.9-0.4-1.3c-0.3-0.4-0.6-0.7-1.1-0.9c-0.1,0-0.2,0-0.3-0.1v-0.2 c0-0.2-0.1-0.3-0.2-0.4c-0.1-0.1-0.3-0.2-0.4-0.2s-0.3,0.1-0.4,0.2c-0.1,0.1-0.2,0.3-0.2,0.4v0.2c-0.4,0.1-0.8,0.3-1.1,0.6 c-0.3,0.3-0.6,0.8-0.7,1.2c-0.1,0.5,0,0.9,0.1,1.4c0.2,0.4,0.5,0.8,0.9,1.1c0.4,0.3,0.9,0.4,1.3,0.4c0.2,0,0.4,0.1,0.6,0.2 c0.2,0.1,0.3,0.3,0.4,0.5c0.1,0.2,0.1,0.4,0.1,0.7C41.1,34.9,41,35.1,40.8,35.3z"></path><g class="st1">	<path class="st2" d="M40,72C22.3,72,8,57.7,8,40S22.3,8,40,8s32,14.3,32,32S57.7,72,40,72z"></path>	<path class="st2" d="M62.6,17.4L17.4,62.6"></path></g></svg>