<svg width="60" height="60" viewBox="0 0 60 60" fill="none" xmlns="http://www.w3.org/2000/svg">
<path d="M16.2499 24.9999C15.6924 24.9999 15.1574 25.0849 14.6249 25.1624C14.7974 24.5824 14.9749 23.9924 15.2599 23.4624C15.5449 22.6924 15.9899 22.0249 16.4324 21.3524C16.8024 20.6249 17.4549 20.1324 17.9349 19.5099C18.4374 18.9049 19.1224 18.5024 19.6649 17.9999C20.1974 17.4749 20.8949 17.2124 21.4499 16.8424C22.0299 16.5099 22.5349 16.1424 23.0749 15.9674L24.4224 15.4124L25.6074 14.9199L24.3949 10.0749L22.9024 10.4349C22.4249 10.5549 21.8424 10.6949 21.1799 10.8624C20.5024 10.9874 19.7799 11.3299 18.9749 11.6424C18.1799 11.9974 17.2599 12.2374 16.4049 12.8074C15.5449 13.3524 14.5524 13.8074 13.6774 14.5374C12.8299 15.2899 11.8074 15.9424 11.0524 16.8999C10.2274 17.7949 9.41237 18.7349 8.77987 19.8049C8.04737 20.8249 7.54987 21.9449 7.02487 23.0524C6.54987 24.1599 6.16737 25.2924 5.85487 26.3924C5.26237 28.5974 4.99737 30.6924 4.89487 32.4849C4.80987 34.2799 4.85987 35.7724 4.96487 36.8524C5.00237 37.3624 5.07237 37.8574 5.12237 38.1999L5.18487 38.6199L5.24987 38.6049C5.69453 40.682 6.71813 42.5907 8.20228 44.1104C9.68643 45.63 11.5705 46.6984 13.6365 47.192C15.7025 47.6856 17.866 47.5842 19.8768 46.8995C21.8875 46.2148 23.6634 44.9749 24.9989 43.3231C26.3344 41.6713 27.175 39.6752 27.4234 37.5657C27.6718 35.4561 27.318 33.3193 26.4027 31.4025C25.4874 29.4856 24.0482 27.8671 22.2515 26.734C20.4548 25.601 18.374 24.9998 16.2499 24.9999ZM43.7499 24.9999C43.1924 24.9999 42.6574 25.0849 42.1249 25.1624C42.2974 24.5824 42.4749 23.9924 42.7599 23.4624C43.0449 22.6924 43.4899 22.0249 43.9324 21.3524C44.3024 20.6249 44.9549 20.1324 45.4349 19.5099C45.9374 18.9049 46.6224 18.5024 47.1649 17.9999C47.6974 17.4749 48.3949 17.2124 48.9499 16.8424C49.5299 16.5099 50.0349 16.1424 50.5749 15.9674L51.9224 15.4124L53.1074 14.9199L51.8949 10.0749L50.4024 10.4349C49.9249 10.5549 49.3424 10.6949 48.6799 10.8624C48.0024 10.9874 47.2799 11.3299 46.4749 11.6424C45.6824 11.9999 44.7599 12.2374 43.9049 12.8099C43.0449 13.3549 42.0524 13.8099 41.1774 14.5399C40.3299 15.2924 39.3074 15.9449 38.5524 16.8999C37.7274 17.7949 36.9124 18.7349 36.2799 19.8049C35.5474 20.8249 35.0499 21.9449 34.5249 23.0524C34.0499 24.1599 33.6674 25.2924 33.3549 26.3924C32.7624 28.5974 32.4974 30.6924 32.3949 32.4849C32.3099 34.2799 32.3599 35.7724 32.4649 36.8524C32.5024 37.3624 32.5724 37.8574 32.6224 38.1999L32.6849 38.6199L32.7499 38.6049C33.1945 40.682 34.2181 42.5907 35.7023 44.1104C37.1864 45.63 39.0705 46.6984 41.1365 47.192C43.2025 47.6856 45.366 47.5842 47.3768 46.8995C49.3875 46.2148 51.1634 44.9749 52.4989 43.3231C53.8344 41.6713 54.675 39.6752 54.9234 37.5657C55.1718 35.4561 54.818 33.3193 53.9027 31.4025C52.9874 29.4856 51.5482 27.8671 49.7515 26.734C47.9548 25.601 45.874 24.9998 43.7499 24.9999Z" fill="#CEB992"/>
</svg>
