<svg width="221" height="221" viewBox="0 0 221 221" fill="none" xmlns="http://www.w3.org/2000/svg">
	<g>
		<animateTransform 
      attributeName="transform"
      attributeType="XML"
      type="rotate"
      from="0 110.5 110.5"
      to="-360 110.5 110.5"
      dur="10s"
      repeatCount="indefinite"/>
<path d="M46.426 42.376C44.8911 43.8395 43.2635 44.4948 41.5431 44.3419C39.8118 44.1775 38.1161 43.2248 36.456 41.4838L30.0338 34.7488L31.4943 33.3564L37.8673 40.0398C38.8284 41.0478 39.9362 41.7738 41.1907 42.2178C42.4456 42.6395 43.7375 42.2168 45.0662 40.95C46.3721 39.7049 46.8385 38.4511 46.4656 37.1885C46.0926 35.9259 45.4201 34.7849 44.448 33.7654L38.075 27.082L39.5355 25.6895L45.9577 32.4245C47.6178 34.1655 48.4888 35.9045 48.5706 37.6416C48.6529 39.3562 47.938 40.9344 46.426 42.376Z" fill="#CEB992"/>
<path d="M54.3351 15.1339L56.3819 14.0788L70.4089 21.858L70.4933 21.8145L64.3795 9.95598L66.1731 9.03134L73.7882 23.8017L71.7202 24.8678L57.8014 17.2465L57.717 17.29L63.7438 28.9797L61.9502 29.9043L54.3351 15.1339Z" fill="#CEB992"/>
<path d="M88.567 3.98161L89.6048 9.36634L96.4262 8.00335L96.7452 9.65839L89.9149 10.9748L91.3616 18.4807L89.3335 18.8716L86.1884 2.55426L95.9327 0.676297L96.2832 2.49452L88.567 3.98161Z" fill="#CEB992"/>
<path d="M120.095 17.1443C118.52 16.9939 117.199 16.5022 116.134 15.6691C115.085 14.8376 114.33 13.7481 113.871 12.4005C113.411 11.053 113.26 9.55997 113.416 7.92148C113.573 6.28299 114.004 4.84564 114.71 3.60942C115.434 2.35895 116.39 1.42476 117.577 0.806855C118.783 0.174701 120.165 -0.0669085 121.725 0.082026C123.269 0.229456 124.565 0.726812 125.613 1.57409C126.662 2.40562 127.417 3.49516 127.876 4.8427C128.336 6.19025 128.486 7.69902 128.326 9.36902C128.168 11.0233 127.737 12.4606 127.032 13.6811C126.327 14.9015 125.381 15.8207 124.193 16.4386C123.005 17.0565 121.639 17.2918 120.095 17.1443ZM120.252 15.2515C121.339 15.3553 122.311 15.1699 123.167 14.6952C124.025 14.2048 124.715 13.4757 125.236 12.508C125.758 11.5403 126.081 10.4105 126.204 9.11866C126.327 7.82678 126.224 6.65638 125.895 5.60746C125.566 4.55854 125.027 3.71213 124.278 3.06824C123.528 2.42435 122.61 2.0505 121.523 1.9467C120.436 1.8429 119.463 2.04409 118.603 2.55029C117.746 3.04074 117.056 3.7698 116.534 4.73748C116.013 5.70516 115.691 6.82707 115.569 8.1032C115.446 9.39508 115.548 10.5655 115.878 11.6144C116.208 12.6476 116.748 13.4861 117.498 14.13C118.247 14.7739 119.165 15.1477 120.252 15.2515Z" fill="#CEB992"/>
<path d="M147.933 17.1209L145.178 16.018L142.717 22.1669L140.821 21.4081L146.998 5.98078L152.243 8.08068C153.492 8.58065 154.422 9.21719 155.033 9.99029C155.659 10.7693 156.007 11.582 156.077 12.4284C156.148 13.2748 156.027 14.0874 155.715 14.8661C155.286 15.9387 154.577 16.7716 153.59 17.365C152.617 17.9642 151.407 18.1108 149.961 17.8048L151.533 25.6961L149.439 24.8579L147.933 17.1209ZM145.831 14.3871L148.939 15.6312C149.982 16.0488 150.955 16.174 151.857 16.0067C152.76 15.8395 153.429 15.2122 153.864 14.125C154.293 13.0524 154.236 12.1516 153.693 11.4226C153.149 10.6936 152.356 10.1203 151.313 9.70266L148.205 8.45861L145.831 14.3871Z" fill="#CEB992"/>
<path d="M168.601 36.9635C167.319 35.9558 166.51 34.7959 166.173 33.4837C165.845 32.1591 165.878 30.8253 166.269 29.4824C166.673 28.1492 167.321 26.9166 168.211 25.7845C169.111 24.64 170.168 23.7191 171.38 23.0219C172.603 22.3122 173.904 21.9763 175.284 22.0142C176.673 22.0397 178.021 22.566 179.327 23.5933C180.783 24.7379 181.646 26.0605 181.915 27.5611C182.207 29.059 182.057 30.5421 181.467 32.0103L179.768 30.6749C180.185 29.6333 180.268 28.6315 180.018 27.6696C179.767 26.7077 179.151 25.8403 178.168 25.0675C176.862 24.0402 175.47 23.7107 173.992 24.079C172.515 24.4473 171.13 25.4524 169.839 27.0946C168.528 28.7616 167.873 30.3613 167.876 31.8938C167.892 33.436 168.559 34.7256 169.877 35.7627C170.661 36.379 171.46 36.7456 172.274 36.8624C173.111 36.9765 173.903 36.8648 174.652 36.5274C175.413 36.1997 176.084 35.68 176.664 34.9682L177.093 34.4604L173.436 31.5841L174.389 30.3712L179.559 34.4361L174.246 41.1912L172.958 40.1787L174.661 38.0141L174.512 37.8967C174.29 38.0246 173.912 38.16 173.377 38.3028C172.851 38.4333 172.152 38.4268 171.278 38.2833C170.426 38.1371 169.534 37.6972 168.601 36.9635Z" fill="#CEB992"/>
<path d="M196.842 44.6947L192.394 47.8619L196.567 53.7212L195.213 54.6851L191.04 48.8258L186.322 52.1857L191.059 58.8379L189.55 59.912L183.615 51.5775L197.152 41.9383L203.087 50.2728L201.579 51.3469L196.842 44.6947Z" fill="#CEB992"/>
<path d="M214.543 79.9578L212.944 75.3365L198.989 80.1659L198.321 78.2366L212.276 73.4071L210.676 68.7858L212.426 68.1801L216.293 79.3522L214.543 79.9578Z" fill="#CEB992"/>
<path d="M218.71 110.451L218.478 105.566L203.728 106.269L203.63 104.229L218.381 103.527L218.148 98.6421L219.997 98.554L220.56 110.363L218.71 110.451Z" fill="#CEB992"/>
<path d="M205.063 136.112L206.658 129.537L202.366 126.688L202.858 124.658L217.536 134.643L217.077 136.535L199.444 138.73L199.937 136.7L205.063 136.112ZM206.795 135.921L214.763 134.996L214.786 134.904L208.11 130.5L206.795 135.921Z" fill="#CEB992"/>
<path d="M208.169 160.31L204.845 166.067C204.291 167.026 203.655 167.701 202.937 168.09C202.211 168.493 201.491 168.663 200.779 168.599C200.08 168.542 199.436 168.344 198.847 168.004C198.23 167.648 197.771 167.209 197.469 166.688C197.167 166.166 196.999 165.649 196.966 165.136C196.933 164.624 196.977 164.183 197.099 163.815L196.975 163.744C196.742 164.084 196.375 164.42 195.872 164.752C195.376 165.105 194.772 165.313 194.059 165.377C193.352 165.462 192.614 165.283 191.847 164.84C191.161 164.444 190.594 163.907 190.146 163.228C189.703 162.57 189.466 161.793 189.435 160.898C189.417 160.011 189.693 159.074 190.263 158.087L193.777 152.001L208.169 160.31ZM198.83 161.909C198.379 162.69 198.19 163.476 198.263 164.268C198.35 165.067 198.818 165.712 199.668 166.203C200.476 166.67 201.224 166.736 201.911 166.401C202.589 166.08 203.166 165.509 203.641 164.686L205.671 161.171L200.86 158.393L198.83 161.909ZM192.025 158.501C191.511 159.392 191.289 160.251 191.36 161.077C191.431 161.904 191.932 162.587 192.864 163.125C193.783 163.655 194.604 163.736 195.328 163.368C196.066 163.008 196.692 162.383 197.206 161.492L199.462 157.586L194.28 154.595L192.025 158.501Z" fill="#CEB992"/>
<path d="M171.855 182.608L170.577 181.268L177.673 174.502L189.141 186.529L187.646 187.954L177.473 177.251L171.855 182.608Z" fill="#CEB992"/>
<path d="M162.643 204.325L160.141 199.472L153.747 202.768L152.986 201.291L159.379 197.995L156.725 192.846L149.466 196.588L148.617 194.943L157.712 190.254L165.327 205.025L156.233 209.713L155.384 208.067L162.643 204.325Z" fill="#CEB992"/>
<path d="M110.854 220.039L108.821 219.845L106.482 205.385L106.34 205.371L100.408 219.042L98.5409 218.864L95.3269 204.32L95.1851 204.306L90.1274 218.06L88.0949 217.866L94.1177 201.748L96.8119 202.005L99.7561 215.379L99.8979 215.392L105.32 202.818L108.014 203.075L110.854 220.039Z" fill="#CEB992"/>
<path d="M73.1518 211.01L75.1812 205.941L68.503 203.268L69.1206 201.725L75.7988 204.398L77.9518 199.021L70.37 195.986L71.0582 194.267L80.5575 198.07L74.381 213.497L64.8817 209.694L65.5699 207.975L73.1518 211.01Z" fill="#CEB992"/>
<path d="M47.6944 199.955L42.917 196.198C41.7476 195.278 40.9377 194.209 40.4876 192.989C40.0152 191.772 39.9291 190.486 40.2292 189.131C40.5071 187.779 41.1695 186.438 42.2164 185.107C43.2633 183.776 44.4206 182.803 45.6885 182.19C46.9342 181.579 48.2091 181.353 49.5131 181.513C50.8073 181.685 52.0392 182.231 53.2086 183.15L57.9673 186.892L47.6944 199.955ZM52.2585 184.819C50.9398 183.782 49.5447 183.38 48.0734 183.612C46.5923 183.857 45.2061 184.8 43.9146 186.442C42.6231 188.084 42.038 189.648 42.1591 191.132C42.2581 192.619 42.9731 193.886 44.3043 194.933L47.2715 197.266L55.2257 187.152L52.2585 184.819Z" fill="#CEB992"/>
<path d="M24.8111 178.583L21.2857 173.633C20.4227 172.421 19.9471 171.166 19.8588 169.869C19.7484 168.568 20.0281 167.31 20.6977 166.095C21.3453 164.876 22.3588 163.776 23.7383 162.793C25.1178 161.811 26.5023 161.204 27.8917 160.973C29.2591 160.737 30.5459 160.88 31.7521 161.4C32.9454 161.93 33.9736 162.801 34.8366 164.013L38.3482 168.944L24.8111 178.583ZM33.4547 165.346C32.4816 163.98 31.2564 163.201 29.7793 163.009C28.2892 162.827 26.6933 163.341 24.9915 164.553C23.2897 165.765 22.2878 167.1 21.9857 168.559C21.6617 170.013 21.9908 171.431 22.9731 172.81L25.1627 175.885L35.6443 168.421L33.4547 165.346Z" fill="#CEB992"/>
<path d="M6.91235 145.958L6.23681 144.006L21.9414 138.571L22.6169 140.523L6.91235 145.958Z" fill="#CEB992"/>
<path d="M1.19379 121.57L1.08421 119.27L13.9879 109.743L13.9833 109.648L0.656078 110.283L0.560059 108.268L17.1598 107.477L17.2705 109.801L4.55549 119.295L4.56001 119.39L17.6975 118.764L17.7936 120.78L1.19379 121.57Z" fill="#CEB992"/>
<path d="M20.313 87.1312C19.9287 88.7154 19.2097 89.9334 18.1562 90.7852C17.0872 91.6333 15.8606 92.1582 14.4762 92.3598C13.0955 92.546 11.7054 92.4693 10.3057 92.1298C8.89062 91.7865 7.61403 91.2081 6.47592 90.3946C5.32242 89.5774 4.47636 88.5334 3.93775 87.2628C3.38375 85.9884 3.30265 84.5438 3.69444 82.9289C4.13102 81.1294 4.97583 79.7953 6.22889 78.9268C7.47029 78.0391 8.88152 77.559 10.4626 77.4866L9.95325 79.586C8.83271 79.6398 7.88691 79.9804 7.11586 80.6076C6.3448 81.2348 5.81189 82.156 5.5171 83.371C5.12531 84.9859 5.40381 86.3889 6.35262 87.5799C7.30143 88.7709 8.79099 89.6127 10.8213 90.1052C12.8824 90.6052 14.6093 90.5355 16.0022 89.8963C17.3987 89.2417 18.2948 88.0992 18.6903 86.4689C18.9254 85.5 18.927 84.6209 18.695 83.8318C18.4513 83.0236 18.0205 82.3491 17.4025 81.8083C16.7883 81.2522 16.037 80.8582 15.1486 80.6264L14.5082 80.4466L13.4112 84.9684L11.9115 84.6046L13.4619 78.2141L21.8138 80.2402L21.4276 81.832L18.7513 81.1828L18.7065 81.3674C18.9149 81.5156 19.1952 81.8035 19.5475 82.2309C19.8844 82.6547 20.1691 83.2937 20.4016 84.1481C20.6224 84.9833 20.5929 85.9777 20.313 87.1312Z" fill="#CEB992"/>
</g>
<ellipse cx="110.797" cy="109.796" rx="63.309" ry="63.3054" fill="#F1EBDF"/>
<g clip-path="url(#clip0_242_410)">
<path d="M120.095 136.898C118.809 136.898 117.523 136.602 116.336 136.107C113.863 135.019 111.192 134.425 108.423 134.425C105.752 134.425 103.081 134.92 100.608 136.008L100.509 136.107C99.322 136.602 98.036 136.898 96.75 136.898C96.0576 136.898 95.3652 136.799 94.6727 136.7C92.6943 136.206 91.0127 135.217 89.7267 133.733C88.4407 132.249 87.6494 130.37 87.5505 128.392C87.4515 126.413 87.9461 124.435 89.0343 122.754L95.9587 111.972C98.7284 107.719 103.378 105.147 108.522 105.147C113.665 105.147 118.315 107.719 121.084 111.972L127.91 122.655C128.998 124.336 129.493 126.314 129.394 128.293C129.295 130.271 128.503 132.15 127.217 133.634C125.932 135.118 124.151 136.206 122.271 136.602C121.48 136.898 120.788 136.898 120.095 136.898ZM108.522 131.755C111.687 131.755 114.655 132.348 117.523 133.634C118.414 134.03 119.304 134.228 120.194 134.228C122.074 134.228 123.854 133.436 125.14 131.953C127.02 129.776 127.217 126.611 125.635 124.138L118.809 113.456C116.534 109.895 112.676 107.817 108.522 107.817C104.367 107.817 100.509 109.895 98.2338 113.456L91.4083 124.138C89.8256 126.611 90.0235 129.678 91.9029 131.953C93.1889 133.436 94.9695 134.228 96.849 134.228C97.7392 134.228 98.6295 134.03 99.4209 133.733C102.388 132.447 105.356 131.755 108.522 131.755Z" fill="#4F3A14"/>
<path d="M87.9455 111.675C84.6814 111.675 81.615 109.4 80.2302 105.938C78.5486 101.586 80.3291 96.739 84.1868 95.2553C84.9781 94.9585 85.7694 94.7607 86.5607 94.7607C87.7477 94.7607 88.9347 95.0574 90.1217 95.6509C92.001 96.6401 93.3858 98.3216 94.2761 100.498C95.0674 102.575 95.1663 104.85 94.4739 106.828C93.7815 108.905 92.2978 110.389 90.4184 111.181C89.5282 111.477 88.7369 111.675 87.9455 111.675ZM86.5607 97.5303C86.0662 97.5303 85.5716 97.6292 85.1759 97.827C82.7031 98.8162 81.7139 101.981 82.802 104.949C83.6922 107.323 85.7694 108.905 87.9455 108.905C88.4401 108.905 88.9347 108.807 89.3303 108.609C90.5173 108.213 91.4075 107.224 91.8032 105.938C92.2978 104.553 92.1989 102.971 91.7043 101.487C91.1108 100.003 90.1217 98.8162 88.8358 98.1238C88.1434 97.7281 87.352 97.5303 86.5607 97.5303Z" fill="#4F3A14"/>
<path d="M103.872 102.773C99.0252 102.773 95.0684 98.2227 95.0684 92.6835C95.0684 87.1443 99.0252 82.5942 103.872 82.5942C108.719 82.5942 112.676 87.1443 112.676 92.6835C112.676 98.2227 108.719 102.773 103.872 102.773ZM103.872 85.3638C100.509 85.3638 97.8381 88.628 97.8381 92.7824C97.8381 96.8379 100.608 100.201 103.872 100.201C107.236 100.201 109.906 96.9368 109.906 92.7824C109.906 88.628 107.137 85.3638 103.872 85.3638Z" fill="#4F3A14"/>
<path d="M122.271 105.74C121.48 105.74 120.787 105.641 119.996 105.345C115.743 103.96 113.665 98.9151 115.248 94.0683C116.039 91.7932 117.523 89.815 119.403 88.7269C120.688 87.9356 122.073 87.5399 123.458 87.5399C124.249 87.5399 124.942 87.6388 125.733 87.9356C127.81 88.628 129.492 90.2106 130.283 92.3867C131.173 94.4639 131.173 96.9368 130.382 99.2118C129.294 103.07 125.931 105.74 122.271 105.74ZM123.557 90.3095C122.667 90.3095 121.776 90.6063 120.886 91.1008C119.501 91.9911 118.413 93.3759 117.82 95.0574C116.732 98.4205 118.018 101.981 120.787 102.872C121.282 103.07 121.678 103.07 122.172 103.07C124.645 103.07 126.92 101.091 127.909 98.3216C128.503 96.6401 128.404 94.8596 127.81 93.3759C127.217 91.9911 126.228 90.903 124.843 90.5074C124.546 90.4084 124.052 90.3095 123.557 90.3095Z" fill="#4F3A14"/>
<path d="M133.053 120.083C131.57 120.083 130.185 119.588 128.998 118.797C125.734 116.324 125.239 111.279 128.107 107.521C129.789 105.147 132.46 103.762 135.13 103.762C136.614 103.762 137.999 104.256 139.186 105.048C142.45 107.521 142.945 112.565 140.076 116.324C138.395 118.698 135.724 120.083 133.053 120.083ZM135.032 106.433C133.251 106.433 131.471 107.422 130.185 109.103C128.305 111.675 128.404 115.038 130.58 116.621C131.273 117.115 132.163 117.412 133.053 117.412C134.834 117.412 136.614 116.423 137.9 114.741C139.779 112.17 139.681 108.807 137.504 107.224C136.812 106.729 136.021 106.433 135.032 106.433Z" fill="#4F3A14"/>
</g>
<defs>
<clipPath id="clip0_242_410">
<rect width="63.309" height="63.3054" fill="white" transform="translate(79.1421 78.143)"/>
</clipPath>
</defs>
</svg>
